<svg width="5949" height="2661" viewBox="0 0 5949 2661" fill="none" xmlns="http://www.w3.org/2000/svg">
<path d="M6037.14 2638.19H5519.6V2640.11H6037.14V2638.19Z" fill="#EBEBEB"/>
<path d="M4182.64 2659.08H4046.85V2661H4182.64V2659.08Z" fill="#EBEBEB"/>
<path d="M5503.98 2566.91H5204.11V2568.83H5503.98V2566.91Z" fill="#EBEBEB"/>
<path d="M501.627 2579.82H-173.26V2581.74H501.627V2579.82Z" fill="#EBEBEB"/>
<path d="M739.767 2579.82H640.855V2581.74H739.767V2579.82Z" fill="#EBEBEB"/>
<path d="M2525.19 2612.23H1061.35V2614.15H2525.19V2612.23Z" fill="#EBEBEB"/>
<path d="M2732.24 2172.06H-285.142C-308.806 2172.06 -331.5 2167.44 -348.233 2159.21C-364.966 2150.99 -374.366 2139.83 -374.366 2128.2V43.4719C-374.16 31.9072 -364.669 20.8507 -347.959 12.709C-331.248 4.56733 -308.671 -0.000443366 -285.142 3.22778e-08H2732.24C2743.96 3.22779e-08 2755.56 1.13436 2766.38 3.33832C2777.21 5.54228 2787.04 8.7727 2795.33 12.8451C2803.61 16.9175 2810.19 21.7521 2814.67 27.073C2819.15 32.3938 2821.46 38.0966 2821.46 43.8559V2128.2C2821.46 2133.96 2819.15 2139.66 2814.67 2144.98C2810.19 2150.3 2803.61 2155.14 2795.33 2159.21C2787.04 2163.28 2777.21 2166.51 2766.38 2168.72C2755.56 2170.92 2743.96 2172.06 2732.24 2172.06ZM-285.142 1.53611C-307.757 1.55642 -329.434 5.98115 -345.425 13.8412C-361.417 21.7013 -370.419 32.356 -370.46 43.4719V2128.2C-370.419 2139.32 -361.417 2149.97 -345.425 2157.83C-329.434 2165.69 -307.757 2170.12 -285.142 2170.14H2732.24C2754.85 2170.12 2776.53 2165.69 2792.52 2157.83C2808.51 2149.97 2817.51 2139.32 2817.56 2128.2V43.4719C2817.51 32.356 2808.51 21.7013 2792.52 13.8412C2776.53 5.98115 2754.85 1.55642 2732.24 1.53611H-285.142Z" fill="#EBEBEB"/>
<path d="M6112.14 2172.06H3094.76C3071.1 2172.06 3048.4 2167.44 3031.67 2159.21C3014.94 2150.99 3005.54 2139.83 3005.54 2128.2V43.4719C3005.74 31.9072 3015.23 20.8507 3031.94 12.709C3048.65 4.56733 3071.23 -0.000443366 3094.76 3.22778e-08H6112.14C6135.81 3.22779e-08 6158.5 4.62052 6175.24 12.8451C6191.97 21.0697 6201.37 32.2246 6201.37 43.8559V2128.2C6201.37 2139.83 6191.97 2150.99 6175.24 2159.21C6158.5 2167.44 6135.81 2172.06 6112.14 2172.06ZM3094.76 1.53611C3072.15 1.55642 3050.47 5.98115 3034.48 13.8412C3018.49 21.7013 3009.48 32.356 3009.44 43.4719V2128.2C3009.48 2139.32 3018.49 2149.97 3034.48 2157.83C3050.47 2165.69 3072.15 2170.12 3094.76 2170.14H6112.14C6134.76 2170.12 6156.44 2165.69 6172.43 2157.83C6188.42 2149.97 6197.42 2139.32 6197.46 2128.2V43.4719C6197.42 32.356 6188.42 21.7013 6172.43 13.8412C6156.44 5.98115 6134.76 1.55642 6112.14 1.53611H3094.76Z" fill="#EBEBEB"/>
<path d="M6820 2514.61H-993V2516.53H6820V2514.61Z" fill="#EBEBEB"/>
<path d="M2338.15 2511.69H3096.79V822.048L2338.15 973.585V2511.69Z" fill="#F0F0F0"/>
<path d="M2848.5 1102H3055.85V1000.08H2848.5V1102Z" fill="#FAFAFA"/>
<path d="M2613.79 1102H2821.15V1000.08H2613.79V1102Z" fill="#F0F0F0"/>
<path d="M2379.09 1102H2586.45V1000.08H2379.09V1102Z" fill="#FAFAFA"/>
<path d="M2848.5 1215.91H3055.85V1113.99H2848.5V1215.91Z" fill="#FAFAFA"/>
<path d="M2613.79 1215.91H2821.15V1113.99H2613.79V1215.91Z" fill="#FAFAFA"/>
<path d="M2379.09 1215.91H2586.45V1113.99H2379.09V1215.91Z" fill="#FAFAFA"/>
<path d="M2848.5 1329.73H3055.85V1227.81H2848.5V1329.73Z" fill="#FAFAFA"/>
<path d="M2613.79 1329.73H2821.15V1227.81H2613.79V1329.73Z" fill="#F0F0F0"/>
<path d="M2379.09 1329.73H2586.45V1227.81H2379.09V1329.73Z" fill="#FAFAFA"/>
<path d="M2848.5 1443.56H3055.85V1341.64H2848.5V1443.56Z" fill="#F0F0F0"/>
<path d="M2613.79 1443.56H2821.15V1341.64H2613.79V1443.56Z" fill="#FAFAFA"/>
<path d="M2379.09 1443.56H2586.45V1341.64H2379.09V1443.56Z" fill="#FAFAFA"/>
<path d="M2848.5 1557.38H3055.85V1455.46H2848.5V1557.38Z" fill="#FAFAFA"/>
<path d="M2613.79 1557.38H2821.15V1455.46H2613.79V1557.38Z" fill="#FAFAFA"/>
<path d="M2379.09 1557.38H2586.45V1455.46H2379.09V1557.38Z" fill="#F0F0F0"/>
<path d="M2848.5 1671.21H3055.85V1569.29H2848.5V1671.21Z" fill="#FAFAFA"/>
<path d="M2613.79 1671.21H2821.15V1569.29H2613.79V1671.21Z" fill="#F0F0F0"/>
<path d="M2379.09 1671.21H2586.45V1569.29H2379.09V1671.21Z" fill="#FAFAFA"/>
<path d="M2848.5 1785.03H3055.85V1683.11H2848.5V1785.03Z" fill="#F0F0F0"/>
<path d="M2613.79 1785.03H2821.15V1683.11H2613.79V1785.03Z" fill="#F0F0F0"/>
<path d="M2379.09 1785.03H2586.45V1683.11H2379.09V1785.03Z" fill="#FAFAFA"/>
<path d="M2848.5 1898.86H3055.85V1796.94H2848.5V1898.86Z" fill="#FAFAFA"/>
<path d="M2613.79 1898.86H2821.15V1796.94H2613.79V1898.86Z" fill="#F0F0F0"/>
<path d="M2379.09 1898.86H2586.45V1796.94H2379.09V1898.86Z" fill="#FAFAFA"/>
<path d="M2848.5 2012.76H3055.85V1910.84H2848.5V2012.76Z" fill="#FAFAFA"/>
<path d="M2613.79 2012.76H2821.15V1910.84H2613.79V2012.76Z" fill="#FAFAFA"/>
<path d="M2379.09 2012.76H2586.45V1910.84H2379.09V2012.76Z" fill="#FAFAFA"/>
<path d="M2848.5 2126.59H3055.85V2024.67H2848.5V2126.59Z" fill="#F0F0F0"/>
<path d="M2613.79 2126.59H2821.15V2024.67H2613.79V2126.59Z" fill="#FAFAFA"/>
<path d="M2379.09 2126.59H2586.45V2024.67H2379.09V2126.59Z" fill="#F0F0F0"/>
<path d="M2848.5 2240.41H3055.85V2138.49H2848.5V2240.41Z" fill="#FAFAFA"/>
<path d="M2613.79 2240.41H2821.15V2138.49H2613.79V2240.41Z" fill="#F0F0F0"/>
<path d="M2379.09 2240.41H2586.45V2138.49H2379.09V2240.41Z" fill="#FAFAFA"/>
<path d="M2848.5 2354.16H3055.85V2252.24H2848.5V2354.16Z" fill="#F0F0F0"/>
<path d="M2613.79 2354.16H2821.15V2252.24H2613.79V2354.16Z" fill="#FAFAFA"/>
<path d="M2379.09 2354.16H2586.45V2252.24H2379.09V2354.16Z" fill="#FAFAFA"/>
<path d="M5005.2 2511.69H5619.3V1143.94L5005.2 1266.6V2511.69Z" fill="#F0F0F0"/>
<path d="M5418.35 1370.59H5586.17V1288.1H5418.35V1370.59Z" fill="#FAFAFA"/>
<path d="M5228.34 1370.59H5396.16V1288.1H5228.34V1370.59Z" fill="#F0F0F0"/>
<path d="M5038.32 1370.59H5206.15V1288.1H5038.32V1370.59Z" fill="#FAFAFA"/>
<path d="M5418.35 1462.76H5586.17V1380.27H5418.35V1462.76Z" fill="#FAFAFA"/>
<path d="M5228.34 1462.76H5396.16V1380.27H5228.34V1462.76Z" fill="#FAFAFA"/>
<path d="M5038.32 1462.76H5206.15V1380.27H5038.32V1462.76Z" fill="#FAFAFA"/>
<path d="M5418.35 1554.93H5586.17V1472.44H5418.35V1554.93Z" fill="#FAFAFA"/>
<path d="M5228.34 1554.93H5396.16V1472.44H5228.34V1554.93Z" fill="#F0F0F0"/>
<path d="M5038.32 1554.93H5206.15V1472.44H5038.32V1554.93Z" fill="#FAFAFA"/>
<path d="M5418.35 1647.09H5586.17V1564.6H5418.35V1647.09Z" fill="#F0F0F0"/>
<path d="M5228.34 1647.09H5396.16V1564.6H5228.34V1647.09Z" fill="#FAFAFA"/>
<path d="M5038.32 1647.09H5206.15V1564.6H5038.32V1647.09Z" fill="#FAFAFA"/>
<path d="M5418.35 1739.18H5586.17V1656.69H5418.35V1739.18Z" fill="#FAFAFA"/>
<path d="M5228.34 1739.18H5396.16V1656.69H5228.34V1739.18Z" fill="#FAFAFA"/>
<path d="M5038.32 1739.18H5206.15V1656.69H5038.32V1739.18Z" fill="#F0F0F0"/>
<path d="M5418.35 1831.27H5586.17V1748.78H5418.35V1831.27Z" fill="#FAFAFA"/>
<path d="M5228.34 1831.27H5396.16V1748.78H5228.34V1831.27Z" fill="#F0F0F0"/>
<path d="M5038.32 1831.27H5206.15V1748.78H5038.32V1831.27Z" fill="#FAFAFA"/>
<path d="M5418.35 1923.51H5586.17V1841.03H5418.35V1923.51Z" fill="#F0F0F0"/>
<path d="M5228.34 1923.51H5396.16V1841.03H5228.34V1923.51Z" fill="#F0F0F0"/>
<path d="M5038.32 1923.51H5206.15V1841.03H5038.32V1923.51Z" fill="#FAFAFA"/>
<path d="M5418.35 2015.6H5586.17V1933.12H5418.35V2015.6Z" fill="#FAFAFA"/>
<path d="M5228.34 2015.6H5396.16V1933.12H5228.34V2015.6Z" fill="#F0F0F0"/>
<path d="M5038.32 2015.6H5206.15V1933.12H5038.32V2015.6Z" fill="#FAFAFA"/>
<path d="M5418.35 2107.77H5586.17V2025.28H5418.35V2107.77Z" fill="#FAFAFA"/>
<path d="M5228.34 2107.77H5396.16V2025.28H5228.34V2107.77Z" fill="#FAFAFA"/>
<path d="M5038.32 2107.77H5206.15V2025.28H5038.32V2107.77Z" fill="#FAFAFA"/>
<path d="M5418.35 2199.86H5586.17V2117.37H5418.35V2199.86Z" fill="#F0F0F0"/>
<path d="M5228.34 2199.86H5396.16V2117.37H5228.34V2199.86Z" fill="#FAFAFA"/>
<path d="M5038.32 2199.86H5206.15V2117.37H5038.32V2199.86Z" fill="#F0F0F0"/>
<path d="M5418.35 2292.1H5586.17V2209.61H5418.35V2292.1Z" fill="#FAFAFA"/>
<path d="M5228.34 2292.1H5396.16V2209.61H5228.34V2292.1Z" fill="#F0F0F0"/>
<path d="M5038.32 2292.1H5206.15V2209.61H5038.32V2292.1Z" fill="#FAFAFA"/>
<path d="M5418.35 2384.19H5586.17V2301.7H5418.35V2384.19Z" fill="#F0F0F0"/>
<path d="M5228.34 2384.19H5396.16V2301.7H5228.34V2384.19Z" fill="#FAFAFA"/>
<path d="M5038.32 2384.19H5206.15V2301.7H5038.32V2384.19Z" fill="#FAFAFA"/>
<path d="M4870.34 2511.69H4201.4V1021.97L4870.34 1155.61V2511.69Z" fill="#F0F0F0"/>
<path d="M4515.79 1138.18H4415V1187.72H4515.79V1138.18Z" fill="#FAFAFA"/>
<path d="M4375 1212.99H4274.21V1262.53H4375V1212.99Z" fill="#FAFAFA"/>
<path d="M4375 1287.72H4274.21V1337.26H4375V1287.72Z" fill="#FAFAFA"/>
<path d="M4515.79 1287.72H4415V1337.26H4515.79V1287.72Z" fill="#FAFAFA"/>
<path d="M4656.58 1287.72H4555.79V1337.26H4656.58V1287.72Z" fill="#FAFAFA"/>
<path d="M4375 1437.18H4274.21V1486.72H4375V1437.18Z" fill="#FAFAFA"/>
<path d="M4656.58 1437.18H4555.79V1486.72H4656.58V1437.18Z" fill="#FAFAFA"/>
<path d="M4515.79 1511.99H4415V1561.53H4515.79V1511.99Z" fill="#FAFAFA"/>
<path d="M4375 1586.72H4274.21V1636.26H4375V1586.72Z" fill="#FAFAFA"/>
<path d="M4656.58 1586.72H4555.79V1636.26H4656.58V1586.72Z" fill="#FAFAFA"/>
<path d="M4797.53 1586.72H4696.74V1636.26H4797.53V1586.72Z" fill="#FAFAFA"/>
<path d="M4515.79 1661.45H4415V1710.99H4515.79V1661.45Z" fill="#FAFAFA"/>
<path d="M4375 1736.19H4274.21V1785.73H4375V1736.19Z" fill="#FAFAFA"/>
<path d="M4515.79 1736.19H4415V1785.73H4515.79V1736.19Z" fill="#FAFAFA"/>
<path d="M4797.53 1736.19H4696.74V1785.73H4797.53V1736.19Z" fill="#FAFAFA"/>
<path d="M4375.88 1809.74L4275.1 1809.03L4273.66 1858.56L4374.44 1859.27L4375.88 1809.74Z" fill="#FAFAFA"/>
<path d="M4657.37 1811.8L4556.59 1811.09L4555.15 1860.62L4655.93 1861.33L4657.37 1811.8Z" fill="#FAFAFA"/>
<path d="M4798.27 1812.79L4697.5 1812.08L4696.05 1861.61L4796.83 1862.32L4798.27 1812.79Z" fill="#FAFAFA"/>
<path d="M4515.79 1885.73H4415V1935.27H4515.79V1885.73Z" fill="#FAFAFA"/>
<path d="M4696.74 2003.24H4797.53V1953.7H4696.74V2003.24Z" fill="#FAFAFA"/>
<path d="M4415.16 2003.24H4515.95V1953.7H4415.16V2003.24Z" fill="#FAFAFA"/>
<path d="M4274.21 2003.24H4375V1953.7H4274.21V2003.24Z" fill="#FAFAFA"/>
<path d="M4555.79 2077.97H4656.58V2028.43H4555.79V2077.97Z" fill="#FAFAFA"/>
<path d="M4696.74 2152.7H4797.53V2103.16H4696.74V2152.7Z" fill="#FAFAFA"/>
<path d="M4555.79 2152.7H4656.58V2103.16H4555.79V2152.7Z" fill="#FAFAFA"/>
<path d="M4274.21 2152.7H4375V2103.16H4274.21V2152.7Z" fill="#FAFAFA"/>
<path d="M4697.45 2226.19L4798.23 2225.48L4796.79 2175.94L4696.01 2176.65L4697.45 2226.19Z" fill="#FAFAFA"/>
<path d="M4416.1 2228.2L4516.87 2227.49L4515.43 2177.96L4414.65 2178.67L4416.1 2228.2Z" fill="#FAFAFA"/>
<path d="M4275.11 2229.28L4375.88 2228.58L4374.44 2179.04L4273.66 2179.75L4275.11 2229.28Z" fill="#FAFAFA"/>
<path d="M4555.79 2302.24H4656.58V2252.7H4555.79V2302.24Z" fill="#FAFAFA"/>
<path d="M3997.01 864.598V794.629H3709.18V864.598H3231.64V2511.69H4066.54V864.598H3997.01Z" fill="#EBEBEB"/>
<path d="M3624.64 953.001H3501.35V1013.6H3624.64V953.001Z" fill="#FAFAFA"/>
<path d="M3796.84 953.001H3673.55V1013.6H3796.84V953.001Z" fill="#FAFAFA"/>
<path d="M3452.44 1044.48H3329.15V1105.08H3452.44V1044.48Z" fill="#FAFAFA"/>
<path d="M3624.64 1044.48H3501.35V1105.08H3624.64V1044.48Z" fill="#FAFAFA"/>
<path d="M3969.04 1044.48H3845.75V1105.08H3969.04V1044.48Z" fill="#FAFAFA"/>
<path d="M3452.44 1135.88H3329.15V1196.47H3452.44V1135.88Z" fill="#FAFAFA"/>
<path d="M3796.84 1135.88H3673.55V1196.47H3796.84V1135.88Z" fill="#FAFAFA"/>
<path d="M3969.04 1135.88H3845.75V1196.47H3969.04V1135.88Z" fill="#FAFAFA"/>
<path d="M3452.44 1318.67H3329.15V1379.27H3452.44V1318.67Z" fill="#FAFAFA"/>
<path d="M3796.84 1318.67H3673.55V1379.27H3796.84V1318.67Z" fill="#FAFAFA"/>
<path d="M3452.44 1410.07H3329.15V1470.67H3452.44V1410.07Z" fill="#FAFAFA"/>
<path d="M3624.64 1410.07H3501.35V1470.67H3624.64V1410.07Z" fill="#FAFAFA"/>
<path d="M3969.04 1410.07H3845.75V1470.67H3969.04V1410.07Z" fill="#FAFAFA"/>
<path d="M3452.44 1866.52H3329.15V1927.12H3452.44V1866.52Z" fill="#FAFAFA"/>
<path d="M3624.64 1866.52H3501.35V1927.12H3624.64V1866.52Z" fill="#FAFAFA"/>
<path d="M3969.04 1866.52H3845.75V1927.12H3969.04V1866.52Z" fill="#FAFAFA"/>
<path d="M3452.44 1957.92H3329.15V2018.52H3452.44V1957.92Z" fill="#FAFAFA"/>
<path d="M3796.84 1957.92H3673.55V2018.52H3796.84V1957.92Z" fill="#FAFAFA"/>
<path d="M3969.04 1957.92H3845.75V2018.52H3969.04V1957.92Z" fill="#FAFAFA"/>
<path d="M3452.44 2140.8H3329.15V2201.4H3452.44V2140.8Z" fill="#FAFAFA"/>
<path d="M3796.84 2140.8H3673.55V2201.4H3796.84V2140.8Z" fill="#FAFAFA"/>
<path d="M3452.44 2232.2H3329.15V2292.79H3452.44V2232.2Z" fill="#FAFAFA"/>
<path d="M3624.64 2232.2H3501.35V2292.79H3624.64V2232.2Z" fill="#FAFAFA"/>
<path d="M3969.04 2232.2H3845.75V2292.79H3969.04V2232.2Z" fill="#FAFAFA"/>
<path d="M3969.04 1501.47H3845.75V1562.07H3969.04V1501.47Z" fill="#FAFAFA"/>
<path d="M3452.44 1592.94H3329.15V1653.54H3452.44V1592.94Z" fill="#FAFAFA"/>
<path d="M3624.64 1592.94H3501.35V1653.54H3624.64V1592.94Z" fill="#FAFAFA"/>
<path d="M3797.8 1685.33L3674.53 1684.46L3672.76 1745.06L3796.04 1745.92L3797.8 1685.33Z" fill="#FAFAFA"/>
<path d="M3969.95 1686.62L3846.67 1685.75L3844.91 1746.34L3968.19 1747.21L3969.95 1686.62Z" fill="#FAFAFA"/>
<path d="M3452.44 1775.74H3329.15V1836.34H3452.44V1775.74Z" fill="#FAFAFA"/>
<path d="M1229.33 2511.69H1964.22V983.109L1229.33 1021.74V2511.69Z" fill="#F0F0F0"/>
<path d="M1723.89 1146.24H1924.69V1047.55H1723.89V1146.24Z" fill="#FAFAFA"/>
<path d="M1496.38 1146.24H1697.17V1047.55H1496.38V1146.24Z" fill="#F0F0F0"/>
<path d="M1269.02 1146.24H1469.81V1047.55H1269.02V1146.24Z" fill="#FAFAFA"/>
<path d="M1723.89 1256.54H1924.69V1157.84H1723.89V1256.54Z" fill="#FAFAFA"/>
<path d="M1496.38 1256.54H1697.17V1157.84H1496.38V1256.54Z" fill="#FAFAFA"/>
<path d="M1269.02 1256.54H1469.81V1157.84H1269.02V1256.54Z" fill="#FAFAFA"/>
<path d="M1723.89 1366.75H1924.69V1268.06H1723.89V1366.75Z" fill="#FAFAFA"/>
<path d="M1496.38 1366.75H1697.17V1268.06H1496.38V1366.75Z" fill="#F0F0F0"/>
<path d="M1269.02 1366.75H1469.81V1268.06H1269.02V1366.75Z" fill="#FAFAFA"/>
<path d="M1723.89 1477.04H1924.69V1378.35H1723.89V1477.04Z" fill="#F0F0F0"/>
<path d="M1496.38 1477.04H1697.17V1378.35H1496.38V1477.04Z" fill="#FAFAFA"/>
<path d="M1269.02 1477.04H1469.81V1378.35H1269.02V1477.04Z" fill="#FAFAFA"/>
<path d="M1723.89 1587.34H1924.69V1488.64H1723.89V1587.34Z" fill="#FAFAFA"/>
<path d="M1496.38 1587.34H1697.17V1488.64H1496.38V1587.34Z" fill="#FAFAFA"/>
<path d="M1269.02 1587.34H1469.81V1488.64H1269.02V1587.34Z" fill="#F0F0F0"/>
<path d="M1723.89 1697.55H1924.69V1598.86H1723.89V1697.55Z" fill="#FAFAFA"/>
<path d="M1496.38 1697.55H1697.17V1598.86H1496.38V1697.55Z" fill="#F0F0F0"/>
<path d="M1269.02 1697.55H1469.81V1598.86H1269.02V1697.55Z" fill="#FAFAFA"/>
<path d="M1723.89 1807.85H1924.69V1709.15H1723.89V1807.85Z" fill="#F0F0F0"/>
<path d="M1496.38 1807.85H1697.17V1709.15H1496.38V1807.85Z" fill="#F0F0F0"/>
<path d="M1269.02 1807.85H1469.81V1709.15H1269.02V1807.85Z" fill="#FAFAFA"/>
<path d="M1723.89 1918.06H1924.69V1819.37H1723.89V1918.06Z" fill="#FAFAFA"/>
<path d="M1496.38 1918.06H1697.17V1819.37H1496.38V1918.06Z" fill="#F0F0F0"/>
<path d="M1269.02 1918.06H1469.81V1819.37H1269.02V1918.06Z" fill="#FAFAFA"/>
<path d="M1723.89 2028.28H1924.69V1929.58H1723.89V2028.28Z" fill="#FAFAFA"/>
<path d="M1496.38 2028.28H1697.17V1929.58H1496.38V2028.28Z" fill="#FAFAFA"/>
<path d="M1269.02 2028.28H1469.81V1929.58H1269.02V2028.28Z" fill="#FAFAFA"/>
<path d="M1723.89 2138.65H1924.69V2039.95H1723.89V2138.65Z" fill="#F0F0F0"/>
<path d="M1496.38 2138.65H1697.17V2039.95H1496.38V2138.65Z" fill="#FAFAFA"/>
<path d="M1269.02 2138.65H1469.81V2039.95H1269.02V2138.65Z" fill="#F0F0F0"/>
<path d="M1723.89 2248.86H1924.69V2150.17H1723.89V2248.86Z" fill="#FAFAFA"/>
<path d="M1496.38 2248.86H1697.17V2150.17H1496.38V2248.86Z" fill="#F0F0F0"/>
<path d="M1269.02 2248.86H1469.81V2150.17H1269.02V2248.86Z" fill="#FAFAFA"/>
<path d="M1723.89 2359.15H1924.69V2260.46H1723.89V2359.15Z" fill="#F0F0F0"/>
<path d="M1496.38 2359.15H1697.17V2260.46H1496.38V2359.15Z" fill="#FAFAFA"/>
<path d="M1269.02 2359.15H1469.81V2260.46H1269.02V2359.15Z" fill="#FAFAFA"/>
<path d="M997.439 2511.69H288.488V932.725L997.439 1074.35V2511.69Z" fill="#F0F0F0"/>
<path d="M621.791 1055.92H514.909V1108.46H621.791V1055.92Z" fill="#FAFAFA"/>
<path d="M472.563 1135.18H365.681V1187.72H472.563V1135.18Z" fill="#FAFAFA"/>
<path d="M472.563 1214.37H365.681V1266.9H472.563V1214.37Z" fill="#FAFAFA"/>
<path d="M621.791 1214.37H514.909V1266.9H621.791V1214.37Z" fill="#FAFAFA"/>
<path d="M771.019 1214.37H664.137V1266.9H771.019V1214.37Z" fill="#FAFAFA"/>
<path d="M472.563 1372.82H365.681V1425.35H472.563V1372.82Z" fill="#FAFAFA"/>
<path d="M771.019 1372.82H664.137V1425.35H771.019V1372.82Z" fill="#FAFAFA"/>
<path d="M621.791 1452.08H514.909V1504.62H621.791V1452.08Z" fill="#FAFAFA"/>
<path d="M472.563 1531.27H365.681V1583.8H472.563V1531.27Z" fill="#FAFAFA"/>
<path d="M771.019 1531.27H664.137V1583.8H771.019V1531.27Z" fill="#FAFAFA"/>
<path d="M920.248 1531.27H813.366V1583.8H920.248V1531.27Z" fill="#FAFAFA"/>
<path d="M621.791 1610.53H514.909V1663.07H621.791V1610.53Z" fill="#FAFAFA"/>
<path d="M472.563 1689.72H365.681V1742.25H472.563V1689.72Z" fill="#FAFAFA"/>
<path d="M621.791 1689.72H514.909V1742.25H621.791V1689.72Z" fill="#FAFAFA"/>
<path d="M920.248 1689.72H813.366V1742.25H920.248V1689.72Z" fill="#FAFAFA"/>
<path d="M473.502 1767.7L366.631 1766.95L365.101 1819.48L471.973 1820.23L473.502 1767.7Z" fill="#FAFAFA"/>
<path d="M771.866 1769.88L664.994 1769.12L663.465 1821.65L770.336 1822.41L771.866 1769.88Z" fill="#FAFAFA"/>
<path d="M921.203 1770.93L814.332 1770.17L812.802 1822.7L919.673 1823.45L921.203 1770.93Z" fill="#FAFAFA"/>
<path d="M621.791 1848.25H514.909V1900.78H621.791V1848.25Z" fill="#FAFAFA"/>
<path d="M813.523 1972.75H920.404V1920.21H813.523V1972.75Z" fill="#FAFAFA"/>
<path d="M514.91 1972.75H621.791V1920.21H514.91V1972.75Z" fill="#FAFAFA"/>
<path d="M365.524 1972.75H472.406V1920.21H365.524V1972.75Z" fill="#FAFAFA"/>
<path d="M664.139 2051.93H771.019V1999.4H664.139V2051.93Z" fill="#FAFAFA"/>
<path d="M813.523 2131.2H920.404V2078.66H813.523V2131.2Z" fill="#FAFAFA"/>
<path d="M664.139 2131.2H771.019V2078.66H664.139V2131.2Z" fill="#FAFAFA"/>
<path d="M365.524 2131.2H472.406V2078.66H365.524V2131.2Z" fill="#FAFAFA"/>
<path d="M814.421 2209.2L921.292 2208.45L919.762 2155.92L812.891 2156.68L814.421 2209.2Z" fill="#FAFAFA"/>
<path d="M515.874 2211.33L622.745 2210.58L621.215 2158.05L514.344 2158.8L515.874 2211.33Z" fill="#FAFAFA"/>
<path d="M366.443 2212.35L473.313 2211.6L471.783 2159.07L364.913 2159.82L366.443 2212.35Z" fill="#FAFAFA"/>
<path d="M664.139 2289.65H771.019V2237.11H664.139V2289.65Z" fill="#FAFAFA"/>
<path d="M-197.324 2461.84H395.526C411.482 2461.84 426.783 2464.96 438.066 2470.5C449.348 2476.05 455.686 2483.57 455.686 2491.41V2520.75H-257.328V2491.41C-257.328 2483.58 -251.011 2476.07 -239.762 2470.53C-228.514 2464.99 -213.252 2461.86 -197.324 2461.84Z" fill="#EBEBEB"/>
<path d="M506.314 2461.84H1099.17C1115.12 2461.84 1130.42 2464.96 1141.7 2470.5C1152.99 2476.05 1159.33 2483.57 1159.33 2491.41V2520.75H446.154V2491.41C446.154 2487.53 447.71 2483.69 450.734 2480.1C453.757 2476.51 458.188 2473.25 463.775 2470.5C469.361 2467.76 475.993 2465.58 483.292 2464.09C490.591 2462.61 498.414 2461.84 506.314 2461.84Z" fill="#F5F5F5"/>
<path d="M1210.27 2461.84H1803.12C1819.07 2461.84 1834.37 2464.96 1845.66 2470.5C1856.94 2476.05 1863.28 2483.57 1863.28 2491.41V2520.75H1149.79V2491.41C1149.79 2487.52 1151.36 2483.66 1154.4 2480.06C1157.45 2476.46 1161.91 2473.2 1167.53 2470.45C1173.15 2467.7 1179.81 2465.53 1187.15 2464.05C1194.48 2462.57 1202.34 2461.82 1210.27 2461.84Z" fill="#EBEBEB"/>
<path d="M1913.44 2461.84H2506.29C2522.24 2461.84 2537.54 2464.96 2548.83 2470.5C2560.11 2476.05 2566.45 2483.57 2566.45 2491.41V2520.75H1853.43V2491.41C1853.43 2483.58 1859.75 2476.07 1871 2470.53C1882.25 2464.99 1897.51 2461.86 1913.44 2461.84Z" fill="#F5F5F5"/>
<path d="M2616.61 2461.84H3210.39C3226.35 2461.84 3241.65 2464.96 3252.93 2470.5C3264.22 2476.05 3270.55 2483.57 3270.55 2491.41V2520.75H2556.92V2491.41C2556.91 2483.61 2563.19 2476.12 2574.37 2470.59C2585.55 2465.05 2600.73 2461.9 2616.61 2461.84Z" fill="#EBEBEB"/>
<path d="M3320.71 2461.84H3913.56C3921.46 2461.84 3929.29 2462.61 3936.59 2464.09C3943.88 2465.58 3950.52 2467.76 3956.1 2470.5C3961.69 2473.25 3966.12 2476.51 3969.14 2480.1C3972.17 2483.69 3973.72 2487.53 3973.72 2491.41V2520.75H3260.55V2491.41C3260.55 2487.53 3262.11 2483.69 3265.13 2480.1C3268.16 2476.51 3272.59 2473.25 3278.17 2470.5C3283.76 2467.76 3290.39 2465.58 3297.69 2464.09C3304.99 2462.61 3312.81 2461.84 3320.71 2461.84Z" fill="#F5F5F5"/>
<path d="M4024.2 2461.84H4616.73C4632.69 2461.84 4647.99 2464.96 4659.27 2470.5C4670.56 2476.05 4676.89 2483.57 4676.89 2491.41V2520.75H3964.19V2491.41C3964.19 2483.58 3970.51 2476.07 3981.76 2470.53C3993.01 2464.99 4008.27 2461.86 4024.2 2461.84Z" fill="#EBEBEB"/>
<path d="M4727.84 2461.84H5320.69C5336.64 2461.84 5351.94 2464.96 5363.23 2470.5C5374.51 2476.05 5380.85 2483.57 5380.85 2491.41V2520.75H4667.68V2491.41C4667.68 2483.57 4674.01 2476.05 4685.3 2470.5C4696.58 2464.96 4711.88 2461.84 4727.84 2461.84Z" fill="#F5F5F5"/>
<path d="M5431.48 2461.84H6024.32C6040.28 2461.84 6055.58 2464.96 6066.86 2470.5C6078.14 2476.05 6084.48 2483.57 6084.48 2491.41V2520.75H5371.32V2491.41C5371.32 2483.57 5377.65 2476.05 5388.94 2470.5C5400.22 2464.96 5415.52 2461.84 5431.48 2461.84Z" fill="#EBEBEB"/>
<path d="M2406.28 624.582C2386.64 624.437 2367.52 627.669 2352.21 633.721C2355.42 625.424 2355.42 616.904 2352.21 608.606C2343.99 588.796 2322.44 570.924 2291.03 557.869C2259.62 544.813 2220.19 537.335 2179.08 536.639C2156.06 536.51 2133.39 539.428 2113.45 545.088C2098.3 531.475 2076.22 520.025 2049.39 511.855C2022.55 503.684 1991.86 499.072 1960.31 498.467C1879.37 498.467 1825.77 530.649 1840.31 570.357C1841.57 573.605 1843.24 576.811 1845.31 579.958C1832.45 578.288 1819.22 577.411 1805.93 577.346C1724.99 577.346 1671.39 609.605 1685.92 649.313C1694.14 669.09 1715.65 686.934 1747 699.973C1778.34 713.013 1817.7 720.49 1858.75 721.203H2442.06C2454.35 721.411 2466.58 720.224 2477.78 717.733C2488.99 715.243 2498.87 711.516 2506.67 706.843C2514.47 702.17 2519.97 696.676 2522.75 690.788C2525.53 684.9 2525.51 678.776 2522.69 672.892C2517.11 659.593 2502.6 647.601 2481.49 638.841C2460.38 630.08 2433.89 625.059 2406.28 624.582Z" fill="#F0F0F0"/>
<path d="M1350.9 397.468C1321.02 397.181 1291.9 402.106 1268.71 411.369C1273.54 398.679 1273.54 385.657 1268.71 372.967C1246.52 312.598 1129.01 263.673 1006.35 263.673C971.641 263.542 937.493 267.97 907.435 276.499C860.557 235.101 768.832 205.608 673.045 205.608C550.849 205.838 469.282 254.763 491.47 314.902C493.27 319.822 495.776 324.673 498.971 329.418C479.433 326.89 459.327 325.574 439.123 325.501C316.303 325.501 234.735 374.426 256.924 434.718C279.113 495.011 396.621 543.936 519.285 543.936H1405.28C1487.63 543.936 1542.48 511.14 1527.63 470.586C1519.01 450.451 1496.92 432.313 1464.89 419.062C1432.86 405.811 1392.74 398.209 1350.9 397.468Z" fill="#F5F5F5"/>
<path d="M4957.07 501.616C4927.19 501.329 4898.07 506.254 4874.88 515.518C4879.69 502.826 4879.69 489.807 4874.88 477.115C4852.69 416.823 4735.18 367.898 4612.51 367.898C4577.54 367.698 4543.11 372.129 4512.82 380.724C4465.94 339.326 4374.22 309.833 4278.43 309.833C4155.77 309.833 4074.2 358.758 4096.39 419.05C4098.17 423.997 4100.67 428.874 4103.89 433.643C4084.37 431.049 4064.26 429.706 4044.04 429.649C3921.22 429.649 3839.65 478.574 3861.84 538.943C3884.03 599.312 4001.38 648.161 4124.2 648.161H5010.2C5092.55 648.161 5147.39 615.288 5132.39 574.811C5124.01 554.736 5102.19 536.62 5070.41 523.353C5038.63 510.086 4998.73 502.433 4957.07 501.616Z" fill="#F5F5F5"/>
<path d="M5893.85 386.485C5878.67 386.33 5863.89 388.835 5852.13 393.551C5854.63 387.132 5854.63 380.538 5852.13 374.119C5845.8 358.815 5829.18 345.001 5804.95 334.901C5780.72 324.801 5750.28 319.001 5718.52 318.435C5700.71 318.338 5683.17 320.593 5667.74 324.963C5656.03 314.363 5638.87 305.453 5617.98 299.121C5597.1 292.788 5573.2 289.252 5548.67 288.865C5534.51 288.604 5520.42 289.956 5507.5 292.816C5494.58 295.675 5483.18 299.965 5474.19 305.349C5465.2 310.734 5458.87 317.067 5455.69 323.854C5452.51 330.641 5452.56 337.697 5455.85 344.472C5456.77 347.069 5458.02 349.634 5459.6 352.153C5449.66 350.838 5439.42 350.167 5429.13 350.156C5414.98 349.91 5400.91 351.273 5388 354.137C5375.1 357.002 5363.71 361.292 5354.73 366.672C5345.75 372.052 5339.42 378.379 5336.22 385.159C5333.03 391.939 5333.06 398.99 5336.31 405.763C5342.65 421.079 5359.28 434.902 5383.55 445.004C5407.81 455.105 5438.29 460.897 5470.07 461.447H5921.35C5930.84 461.559 5940.25 460.607 5948.88 458.664C5957.51 456.721 5965.13 453.838 5971.15 450.233C5977.17 446.628 5981.45 442.396 5983.65 437.858C5985.85 433.32 5985.92 428.595 5983.85 424.042C5979.62 413.722 5968.43 404.403 5952.11 397.589C5935.78 390.775 5915.25 386.864 5893.85 386.485Z" fill="#F0F0F0"/>
<path d="M3842.93 253.458C3822.78 253.287 3803.14 256.604 3787.46 262.828C3790.83 254.331 3790.83 245.595 3787.46 237.098C3779.05 216.864 3757.06 198.603 3725.01 185.247C3692.97 171.89 3652.72 164.211 3610.73 163.442C3587.15 163.293 3563.93 166.293 3543.54 172.121C3527.92 158.13 3505.18 146.372 3477.54 137.998C3449.91 129.624 3418.32 124.92 3385.87 124.348C3303.06 124.348 3248.21 157.297 3263.05 197.927C3264.29 201.261 3266.02 204.546 3268.21 207.759C3255.01 206.021 3241.41 205.118 3227.74 205.07C3145.08 205.07 3090.07 238.097 3105.07 278.727C3113.48 298.961 3135.48 317.221 3167.52 330.578C3199.57 343.934 3239.82 351.613 3281.8 352.383H3879.19C3891.78 352.611 3904.3 351.406 3915.79 348.86C3927.28 346.315 3937.41 342.498 3945.4 337.709C3953.38 332.92 3959.01 327.288 3961.84 321.254C3964.67 315.219 3964.62 308.944 3961.69 302.92C3956.01 289.333 3941.22 277.075 3919.69 268.108C3898.16 259.14 3871.14 253.982 3842.93 253.458Z" fill="#F0F0F0"/>
</svg>
