<svg width="1881" height="1577" viewBox="0 0 1881 1577" fill="none" xmlns="http://www.w3.org/2000/svg">
<path d="M932.893 1577C1425.21 1577 1824.31 1551.76 1824.31 1520.62C1824.31 1489.48 1425.21 1464.24 932.893 1464.24C440.577 1464.24 41.4751 1489.48 41.4751 1520.62C41.4751 1551.76 440.577 1577 932.893 1577Z" fill="#F5F5F5"/>
<path d="M1832.82 1337.97H1855.8V239.217C1855.81 216.182 1851.63 193.372 1843.5 172.089C1835.36 150.806 1823.44 131.468 1808.41 115.177C1793.38 98.8873 1775.53 85.965 1755.88 77.1485C1736.24 68.3321 1715.19 63.7943 1693.93 63.7943H1361.06C1358.01 63.7943 1355.09 65.1062 1352.94 67.4414C1350.78 69.7766 1349.57 72.9438 1349.57 76.2462C1349.57 79.5487 1350.78 82.7159 1352.94 85.0511C1355.09 87.3862 1358.01 88.6981 1361.06 88.6981H1693.93C1730.77 88.7113 1766.09 104.575 1792.14 132.802C1818.19 161.028 1832.82 199.305 1832.82 239.217V1337.97Z" fill="#407BFF"/>
<g opacity="0.5">
<path opacity="0.5" d="M1832.82 1337.97H1855.8V239.217C1855.81 216.182 1851.63 193.372 1843.5 172.089C1835.36 150.806 1823.44 131.468 1808.41 115.177C1793.37 98.8873 1775.53 85.965 1755.88 77.1485C1736.24 68.3321 1715.19 63.7943 1693.92 63.7943H1361.06C1358.01 63.7943 1355.09 65.1062 1352.94 67.4414C1350.78 69.7766 1349.57 72.9438 1349.57 76.2462C1349.57 79.5487 1350.78 82.7159 1352.94 85.0511C1355.09 87.3862 1358.01 88.6981 1361.06 88.6981H1693.92C1730.77 88.7113 1766.09 104.575 1792.14 132.802C1818.18 161.028 1832.82 199.305 1832.82 239.217V1337.97Z" fill="white"/>
</g>
<path d="M1369.94 335.246L1720.64 335.246C1738.11 335.246 1752.27 319.904 1752.27 300.978V140.398C1752.27 121.473 1738.11 106.131 1720.64 106.131L1369.94 106.131C1352.47 106.131 1338.3 121.473 1338.3 140.398V300.978C1338.3 319.904 1352.47 335.246 1369.94 335.246Z" fill="#407BFF"/>
<path opacity="0.5" d="M1369.94 335.246L1720.64 335.246C1738.11 335.246 1752.27 319.904 1752.27 300.978V140.398C1752.27 121.473 1738.11 106.131 1720.64 106.131L1369.94 106.131C1352.47 106.131 1338.3 121.473 1338.3 140.398V300.978C1338.3 319.904 1352.47 335.246 1369.94 335.246Z" fill="white"/>
<path d="M1356.69 300.978V140.398C1356.69 136.603 1358.08 132.961 1360.56 130.273C1363.03 127.584 1366.39 126.067 1369.89 126.054H1720.68C1724.19 126.067 1727.54 127.584 1730.02 130.273C1732.49 132.961 1733.88 136.603 1733.88 140.398V300.978C1733.88 304.774 1732.49 308.415 1730.02 311.104C1727.54 313.792 1724.19 315.31 1720.68 315.323H1369.89C1366.39 315.31 1363.03 313.792 1360.56 311.104C1358.08 308.415 1356.69 304.774 1356.69 300.978V300.978ZM1369.89 136.015C1369.36 136.015 1368.84 136.129 1368.35 136.35C1367.86 136.571 1367.42 136.894 1367.05 137.302C1366.67 137.71 1366.38 138.193 1366.18 138.725C1365.98 139.256 1365.88 139.825 1365.89 140.398V300.978C1365.88 301.551 1365.98 302.12 1366.18 302.652C1366.38 303.183 1366.67 303.667 1367.05 304.075C1367.42 304.482 1367.86 304.806 1368.35 305.027C1368.84 305.248 1369.36 305.361 1369.89 305.361H1720.68C1721.21 305.361 1721.74 305.248 1722.22 305.027C1722.71 304.806 1723.16 304.482 1723.53 304.075C1723.9 303.667 1724.19 303.183 1724.39 302.652C1724.59 302.12 1724.69 301.551 1724.68 300.978V140.398C1724.69 139.825 1724.59 139.256 1724.39 138.725C1724.19 138.193 1723.9 137.71 1723.53 137.302C1723.16 136.894 1722.71 136.571 1722.22 136.35C1721.74 136.129 1721.21 136.015 1720.68 136.015H1369.89Z" fill="#407BFF"/>
<g opacity="0.9">
<path opacity="0.9" d="M1631.31 276.971H1645.1V253.113C1645.1 249.182 1645.81 245.288 1647.2 241.656C1648.59 238.023 1650.62 234.723 1653.19 231.945L1669.19 214.612L1659.31 204.103L1643.31 221.436C1639.45 225.585 1636.4 230.522 1634.33 235.96C1632.25 241.398 1631.19 247.229 1631.21 253.113L1631.31 276.971Z" fill="white"/>
<path opacity="0.9" d="M1663.31 250.025L1674.43 199.719L1628 211.723L1663.31 250.025Z" fill="white"/>
<path opacity="0.9" d="M1445.52 276.971H1459.31V253.113C1459.33 247.229 1458.28 241.398 1456.2 235.96C1454.12 230.522 1451.07 225.585 1447.22 221.436L1431.22 204.103L1421.52 214.612L1437.47 231.945C1440.06 234.712 1442.1 238.009 1443.49 241.644C1444.88 245.28 1445.59 249.179 1445.57 253.113L1445.52 276.971Z" fill="white"/>
<path opacity="0.9" d="M1427.27 250.025L1416.14 199.719L1462.58 211.723L1427.27 250.025Z" fill="white"/>
</g>
<g opacity="0.9">
<path opacity="0.9" d="M1570.25 238.918L1545.29 194.838L1520.28 238.918H1570.25Z" fill="white"/>
<path opacity="0.9" d="M1552.14 216.853H1538.39V276.423H1552.14V216.853Z" fill="white"/>
</g>
<path d="M1762.94 1383.7H320.225C311.03 1383.7 206.895 1382.55 198.022 1380.41L44.6021 1351.72C32.1846 1348.67 21.0931 1341.14 13.1482 1330.36C5.20335 1319.58 0.877031 1306.19 0.879395 1292.4V770.067C0.879394 756.157 3.40914 742.383 8.3241 729.532C13.2391 716.682 20.4429 705.006 29.5242 695.173C38.6054 685.339 49.386 677.54 61.2501 672.222C73.1143 666.903 85.8295 664.169 98.6692 664.176H1726.43C1746.63 664.189 1766 672.878 1780.3 688.339C1794.6 703.8 1802.66 724.772 1802.7 746.657V1340.61C1802.7 1352.04 1798.51 1363 1791.06 1371.08C1783.6 1379.16 1773.48 1383.7 1762.94 1383.7Z" fill="#407BFF"/>
<g opacity="0.5">
<path opacity="0.5" d="M1802.98 1159.31H1740.91V1238.61H1802.98V1159.31Z" fill="white"/>
</g>
<path d="M57.4753 934.631V746.906C57.4631 742.881 55.9819 739.025 53.3548 736.179C50.7277 733.332 47.168 731.728 43.4527 731.715H7.59183C3.17055 743.935 0.894064 756.941 0.879395 770.067V949.872H43.4527C47.176 949.859 50.7425 948.247 53.371 945.39C55.9994 942.534 57.4753 938.664 57.4753 934.631V934.631Z" fill="#407BFF"/>
<path opacity="0.8" d="M57.4753 934.631V746.906C57.4631 742.881 55.9819 739.025 53.3548 736.179C50.7277 733.332 47.168 731.728 43.4527 731.715H7.59183C3.17055 743.935 0.894064 756.941 0.879395 770.067V949.872H43.4527C47.176 949.859 50.7425 948.247 53.371 945.39C55.9994 942.534 57.4753 938.664 57.4753 934.631V934.631Z" fill="white"/>
<path d="M1739.49 1248.57H1800.31C1805.12 1248.57 1809.72 1250.64 1813.12 1254.32C1816.52 1258 1818.43 1262.99 1818.43 1268.19V1356.7C1818.43 1360.24 1817.78 1363.74 1816.53 1367.01C1815.28 1370.28 1813.45 1373.25 1811.14 1375.75C1808.83 1378.26 1806.09 1380.24 1803.07 1381.6C1800.06 1382.95 1796.82 1383.65 1793.55 1383.65H1739.49C1735.26 1383.65 1731.2 1381.83 1728.21 1378.58C1725.21 1375.34 1723.53 1370.95 1723.53 1366.36V1265.85C1723.53 1261.27 1725.21 1256.87 1728.21 1253.63C1731.2 1250.39 1735.26 1248.57 1739.49 1248.57V1248.57Z" fill="#407BFF"/>
<path opacity="0.3" d="M1739.49 1248.57H1800.31C1805.12 1248.57 1809.72 1250.64 1813.12 1254.32C1816.52 1258 1818.43 1262.99 1818.43 1268.19V1356.7C1818.43 1360.24 1817.78 1363.74 1816.53 1367.01C1815.28 1370.28 1813.45 1373.25 1811.14 1375.75C1808.83 1378.26 1806.09 1380.24 1803.07 1381.6C1800.06 1382.95 1796.82 1383.65 1793.55 1383.65H1739.49C1735.26 1383.65 1731.2 1381.83 1728.21 1378.58C1725.21 1375.34 1723.53 1370.95 1723.53 1366.36V1265.85C1723.53 1261.27 1725.21 1256.87 1728.21 1253.63C1731.2 1250.39 1735.26 1248.57 1739.49 1248.57V1248.57Z" fill="white"/>
<path d="M617.226 1374.23C617.226 1329.44 600.801 1286.48 571.563 1254.8C542.326 1223.13 502.671 1205.34 461.323 1205.34C419.975 1205.34 380.321 1223.13 351.083 1254.8C321.846 1286.48 305.42 1329.44 305.42 1374.23C305.42 1377.37 305.742 1380.51 305.88 1383.65H616.766C616.904 1380.56 617.226 1377.42 617.226 1374.23Z" fill="#407BFF"/>
<path d="M1447.5 1374.23C1447.85 1351.81 1444.08 1329.54 1436.41 1308.71C1428.73 1287.89 1417.31 1268.93 1402.8 1252.93C1388.29 1236.94 1370.99 1224.24 1351.9 1215.57C1332.81 1206.9 1312.32 1202.44 1291.62 1202.44C1270.92 1202.44 1250.43 1206.9 1231.34 1215.57C1212.25 1224.24 1194.94 1236.94 1180.43 1252.93C1165.92 1268.93 1154.5 1287.89 1146.83 1308.71C1139.15 1329.54 1135.38 1351.81 1135.74 1374.23C1135.74 1377.37 1136.01 1380.51 1136.15 1383.65H1447.04C1447.22 1380.56 1447.5 1377.42 1447.5 1374.23Z" fill="#407BFF"/>
<g opacity="0.3">
<path opacity="0.3" d="M616.353 1374.23C616.708 1351.81 612.939 1329.54 605.265 1308.71C597.591 1287.89 586.165 1268.93 571.655 1252.93C557.145 1236.94 539.841 1224.24 520.752 1215.57C501.663 1206.9 481.171 1202.44 460.473 1202.44C439.774 1202.44 419.282 1206.9 400.193 1215.57C381.104 1224.24 363.8 1236.94 349.29 1252.93C334.78 1268.93 323.355 1287.89 315.681 1308.71C308.007 1329.54 304.237 1351.81 304.593 1374.23C304.593 1377.37 304.869 1380.51 305.053 1383.65H615.939C616.077 1380.56 616.353 1377.42 616.353 1374.23Z" fill="black"/>
<path opacity="0.3" d="M1447.5 1374.23C1447.5 1377.37 1447.22 1380.51 1447.04 1383.65H1136.15C1136.15 1380.51 1135.74 1377.37 1135.74 1374.23C1135.38 1351.81 1139.15 1329.54 1146.83 1308.71C1154.5 1287.89 1165.92 1268.93 1180.43 1252.93C1194.94 1236.94 1212.25 1224.24 1231.34 1215.57C1250.43 1206.9 1270.92 1202.44 1291.62 1202.44C1312.32 1202.44 1332.81 1206.9 1351.9 1215.57C1370.99 1224.24 1388.29 1236.94 1402.8 1252.93C1417.31 1268.93 1428.74 1287.89 1436.41 1308.71C1444.08 1329.54 1447.85 1351.81 1447.5 1374.23V1374.23Z" fill="black"/>
</g>
<path d="M21.5223 1033.85H45.5674C48.7743 1033.85 51.8498 1035.23 54.1174 1037.68C56.385 1040.14 57.6589 1043.47 57.6589 1046.95V1260.82C57.6589 1264.3 56.385 1267.63 54.1174 1270.08C51.8498 1272.54 48.7743 1273.92 45.5674 1273.92H21.5223C19.4616 1273.92 17.4853 1273.03 16.0282 1271.46C14.571 1269.88 13.7524 1267.74 13.7524 1265.5V1042.27C13.7524 1040.03 14.571 1037.89 16.0282 1036.31C17.4853 1034.73 19.4616 1033.85 21.5223 1033.85V1033.85Z" fill="#407BFF"/>
<path opacity="0.7" d="M21.5223 1033.85H45.5674C48.7743 1033.85 51.8498 1035.23 54.1174 1037.68C56.385 1040.14 57.6589 1043.47 57.6589 1046.95V1260.82C57.6589 1264.3 56.385 1267.63 54.1174 1270.08C51.8498 1272.54 48.7743 1273.92 45.5674 1273.92H21.5223C19.4616 1273.92 17.4853 1273.03 16.0282 1271.46C14.571 1269.88 13.7524 1267.74 13.7524 1265.5V1042.27C13.7524 1040.03 14.571 1037.89 16.0282 1036.31C17.4853 1034.73 19.4616 1033.85 21.5223 1033.85V1033.85Z" fill="white"/>
<path d="M57.4754 1116.88H13.7524V1190.89H57.4754V1116.88Z" fill="#407BFF"/>
<path opacity="0.5" d="M57.4754 1116.88H13.7524V1190.89H57.4754V1116.88Z" fill="white"/>
<path d="M596.4 664.176L510.839 616.858C499.859 610.803 487.713 607.646 475.392 607.644H190.344C174.184 607.635 158.422 613.071 145.242 623.2C132.061 633.33 122.116 647.649 116.783 664.176H596.4Z" fill="#407BFF"/>
<path opacity="0.3" d="M596.4 664.176L510.839 616.858C499.859 610.803 487.713 607.646 475.392 607.644H190.344C174.184 607.635 158.422 613.071 145.242 623.2C132.061 633.33 122.116 647.649 116.783 664.176H596.4Z" fill="white"/>
<path d="M1873.97 829.338C1872.1 829.338 1870.31 828.535 1868.99 827.106C1867.67 825.677 1866.93 823.738 1866.93 821.717V800.3C1866.93 765.982 1868.49 738.14 1836.77 738.14H1731.44C1729.58 738.127 1727.8 737.32 1726.48 735.893C1725.16 734.467 1724.42 732.536 1724.41 730.519V730.519C1724.42 728.502 1725.16 726.571 1726.48 725.145C1727.8 723.719 1729.58 722.912 1731.44 722.899H1836.77C1876.22 722.899 1881 757.764 1881 800.3V821.717C1881 823.738 1880.26 825.677 1878.94 827.106C1877.62 828.535 1875.83 829.338 1873.97 829.338Z" fill="#263238"/>
<g opacity="0.5">
<path opacity="0.5" d="M1873.97 829.338C1872.1 829.338 1870.31 828.535 1868.99 827.106C1867.67 825.677 1866.93 823.738 1866.93 821.717V800.3C1866.93 765.982 1868.49 738.14 1836.77 738.14H1731.44C1729.58 738.127 1727.8 737.32 1726.48 735.893C1725.16 734.467 1724.42 732.536 1724.41 730.519V730.519C1724.42 728.502 1725.16 726.571 1726.48 725.145C1727.8 723.719 1729.58 722.912 1731.44 722.899H1836.77C1876.22 722.899 1881 757.764 1881 800.3V821.717C1881 823.738 1880.26 825.677 1878.94 827.106C1877.62 828.535 1875.83 829.338 1873.97 829.338Z" fill="white"/>
</g>
<path d="M1847.02 790.039H1856.22C1859.66 790.039 1862.96 791.519 1865.39 794.153C1867.82 796.787 1869.18 800.36 1869.18 804.085V918.045C1869.18 921.77 1867.82 925.343 1865.39 927.977C1862.96 930.611 1859.66 932.091 1856.22 932.091H1847.02C1845.81 932.091 1844.64 931.566 1843.77 930.632C1842.91 929.698 1842.43 928.431 1842.43 927.11V795.07C1842.42 794.412 1842.54 793.759 1842.76 793.149C1842.99 792.539 1843.33 791.984 1843.76 791.516C1844.18 791.048 1844.69 790.677 1845.25 790.423C1845.82 790.17 1846.42 790.039 1847.02 790.039Z" fill="#263238"/>
<path opacity="0.2" d="M1847.02 790.039H1856.22C1859.66 790.039 1862.96 791.519 1865.39 794.153C1867.82 796.787 1869.18 800.36 1869.18 804.085V918.045C1869.18 921.77 1867.82 925.343 1865.39 927.977C1862.96 930.611 1859.66 932.091 1856.22 932.091H1847.02C1845.81 932.091 1844.64 931.566 1843.77 930.632C1842.91 929.698 1842.43 928.431 1842.43 927.11V795.07C1842.42 794.412 1842.54 793.759 1842.76 793.149C1842.99 792.539 1843.33 791.984 1843.76 791.516C1844.18 791.048 1844.69 790.677 1845.25 790.423C1845.82 790.17 1846.42 790.039 1847.02 790.039Z" fill="white"/>
<path opacity="0.5" d="M1426.35 731.715H963.697C959.33 731.715 955.79 735.55 955.79 740.282V994.151C955.79 998.883 959.33 1002.72 963.697 1002.72H1426.35C1430.72 1002.72 1434.26 998.883 1434.26 994.151V740.282C1434.26 735.55 1430.72 731.715 1426.35 731.715Z" fill="white"/>
<path opacity="0.7" d="M1418.03 749.347H972.065V985.086H1418.03V749.347Z" fill="white"/>
<g opacity="0.5">
<path opacity="0.5" d="M1051.6 985.086L1097.85 749.347H1026.91L980.663 985.086H1051.6Z" fill="white"/>
<path opacity="0.5" d="M1146.68 749.347H1129.9L1083.65 985.086H1100.43L1146.68 749.347Z" fill="white"/>
<path opacity="0.5" d="M1363.55 749.347H1292.56L1246.31 985.086H1317.3L1363.55 749.347Z" fill="white"/>
<path opacity="0.5" d="M1412.37 749.347H1395.59L1349.34 985.086H1366.12L1412.37 749.347Z" fill="white"/>
</g>
<path opacity="0.5" d="M1771.26 1151H1803.44V746.657C1803.41 741.643 1802.96 736.643 1802.11 731.715H1771.39C1769.54 731.681 1767.71 732.051 1765.99 732.802C1764.28 733.554 1762.72 734.672 1761.41 736.089C1760.1 737.507 1759.07 739.195 1758.38 741.053C1757.68 742.911 1757.34 744.902 1757.37 746.906V1135.8C1757.34 1137.8 1757.68 1139.77 1758.36 1141.62C1759.05 1143.47 1760.07 1145.15 1761.36 1146.57C1762.66 1147.98 1764.2 1149.1 1765.9 1149.86C1767.6 1150.62 1769.42 1151.01 1771.26 1151V1151Z" fill="white"/>
<path opacity="0.5" d="M1771.26 1151H1803.44V825.752L1757.23 1060.45V1135.65C1757.18 1137.67 1757.51 1139.68 1758.2 1141.55C1758.88 1143.43 1759.91 1145.14 1761.22 1146.57C1762.53 1148 1764.1 1149.13 1765.82 1149.89C1767.55 1150.66 1769.39 1151.03 1771.26 1151Z" fill="white"/>
<path opacity="0.5" d="M57.4753 810.809V746.906C57.4631 742.881 55.9819 739.025 53.3548 736.179C50.7277 733.332 47.168 731.728 43.4527 731.715H38.3954L0.879395 923.026V949.872H30.1658L57.4753 810.809Z" fill="white"/>
<path d="M508.744 1482.76C569.761 1455.38 598.736 1379.6 573.462 1313.5C548.188 1247.4 478.236 1216.01 417.22 1243.39C356.204 1270.77 327.229 1346.55 352.503 1412.65C377.777 1478.75 447.728 1510.14 508.744 1482.76Z" fill="#263238"/>
<path opacity="0.5" d="M462.978 1446.65C505.56 1446.65 540.079 1409.26 540.079 1363.13C540.079 1317 505.56 1279.6 462.978 1279.6C420.397 1279.6 385.877 1317 385.877 1363.13C385.877 1409.26 420.397 1446.65 462.978 1446.65Z" fill="white"/>
<path opacity="0.2" d="M532.447 1363.08C532.451 1366.59 532.221 1370.11 531.758 1373.59C530.17 1386.05 525.711 1397.89 518.793 1408C514.901 1413.77 510.254 1418.88 505 1423.19C495.789 1430.86 484.94 1435.88 473.461 1437.79C469.89 1438.43 466.276 1438.75 462.657 1438.73C459.581 1438.72 456.509 1438.49 453.461 1438.04C441.966 1436.39 431.039 1431.63 421.692 1424.19C416.09 1419.81 411.144 1414.51 407.026 1408.5C398.034 1395.36 393.197 1379.43 393.234 1363.08C393.237 1359.31 393.498 1355.55 394.015 1351.82C396.643 1332.95 405.756 1315.85 419.528 1303.95C433.301 1292.06 450.714 1286.24 468.28 1287.66C485.846 1289.08 502.267 1297.65 514.251 1311.63C526.236 1325.62 532.9 1343.99 532.907 1363.08H532.447Z" fill="black"/>
<path opacity="0.2" d="M496.501 1373.04C500.933 1352.7 489.301 1332.31 470.52 1327.51C451.738 1322.71 432.919 1335.31 428.486 1355.65C424.053 1376 435.685 1396.39 454.467 1401.19C473.249 1405.99 492.068 1393.39 496.501 1373.04Z" fill="white"/>
<path d="M462.105 1382.35C471.525 1382.35 479.162 1374.08 479.162 1363.87C479.162 1353.67 471.525 1345.39 462.105 1345.39C452.685 1345.39 445.048 1353.67 445.048 1363.87C445.048 1374.08 452.685 1382.35 462.105 1382.35Z" fill="#263238"/>
<path d="M469.599 1297.53C469.599 1299.15 469.157 1300.72 468.329 1302.07C467.5 1303.41 466.323 1304.46 464.945 1305.08C463.567 1305.69 462.051 1305.86 460.589 1305.54C459.126 1305.23 457.782 1304.45 456.728 1303.31C455.673 1302.16 454.955 1300.71 454.664 1299.12C454.373 1297.54 454.523 1295.9 455.094 1294.4C455.664 1292.91 456.631 1291.64 457.871 1290.74C459.11 1289.84 460.568 1289.36 462.059 1289.36C463.051 1289.35 464.035 1289.56 464.952 1289.97C465.87 1290.38 466.703 1290.98 467.405 1291.74C468.106 1292.5 468.661 1293.4 469.038 1294.4C469.415 1295.39 469.606 1296.46 469.599 1297.53Z" fill="#263238"/>
<path d="M469.599 1428.57C469.599 1430.19 469.157 1431.77 468.329 1433.11C467.5 1434.45 466.323 1435.5 464.945 1436.12C463.567 1436.74 462.051 1436.9 460.589 1436.58C459.126 1436.27 457.782 1435.49 456.728 1434.35C455.673 1433.21 454.955 1431.75 454.664 1430.17C454.373 1428.58 454.523 1426.94 455.094 1425.45C455.664 1423.95 456.631 1422.68 457.871 1421.78C459.11 1420.88 460.568 1420.4 462.059 1420.4C463.051 1420.4 464.035 1420.6 464.952 1421.01C465.87 1421.42 466.703 1422.02 467.405 1422.78C468.106 1423.54 468.661 1424.45 469.038 1425.44C469.415 1426.43 469.606 1427.5 469.599 1428.57Z" fill="#263238"/>
<path d="M418.199 1322.43C422.464 1322.43 425.922 1318.69 425.922 1314.07C425.922 1309.44 422.464 1305.7 418.199 1305.7C413.933 1305.7 410.475 1309.44 410.475 1314.07C410.475 1318.69 413.933 1322.43 418.199 1322.43Z" fill="#263238"/>
<path d="M505.966 1417.52C510.232 1417.52 513.69 1413.77 513.69 1409.15C513.69 1404.53 510.232 1400.78 505.966 1400.78C501.7 1400.78 498.242 1404.53 498.242 1409.15C498.242 1413.77 501.7 1417.52 505.966 1417.52Z" fill="#263238"/>
<path d="M399.992 1353.26C401.52 1353.26 403.013 1353.75 404.283 1354.67C405.553 1355.59 406.543 1356.9 407.128 1358.43C407.713 1359.96 407.865 1361.64 407.567 1363.26C407.269 1364.89 406.534 1366.38 405.454 1367.55C404.374 1368.72 402.997 1369.52 401.499 1369.84C400.001 1370.16 398.448 1370 397.037 1369.36C395.625 1368.73 394.419 1367.66 393.57 1366.28C392.722 1364.9 392.269 1363.29 392.269 1361.63C392.281 1359.42 393.098 1357.3 394.544 1355.73C395.99 1354.16 397.947 1353.28 399.992 1353.26V1353.26Z" fill="#263238"/>
<path d="M524.126 1353.26C525.654 1353.26 527.147 1353.75 528.418 1354.67C529.688 1355.59 530.678 1356.9 531.262 1358.43C531.847 1359.96 532 1361.64 531.702 1363.26C531.404 1364.89 530.668 1366.38 529.588 1367.55C528.508 1368.72 527.132 1369.52 525.633 1369.84C524.135 1370.16 522.582 1370 521.171 1369.36C519.759 1368.73 518.553 1367.66 517.704 1366.28C516.855 1364.9 516.402 1363.29 516.402 1361.63C516.402 1359.41 517.216 1357.28 518.665 1355.72C520.113 1354.15 522.078 1353.26 524.126 1353.26V1353.26Z" fill="#263238"/>
<path d="M418.199 1417.52C422.464 1417.52 425.922 1413.77 425.922 1409.15C425.922 1404.53 422.464 1400.78 418.199 1400.78C413.933 1400.78 410.475 1404.53 410.475 1409.15C410.475 1413.77 413.933 1417.52 418.199 1417.52Z" fill="#263238"/>
<path d="M505.966 1322.43C510.232 1322.43 513.69 1318.69 513.69 1314.07C513.69 1309.44 510.232 1305.7 505.966 1305.7C501.7 1305.7 498.242 1309.44 498.242 1314.07C498.242 1318.69 501.7 1322.43 505.966 1322.43Z" fill="#263238"/>
<path d="M1376.17 1454.7C1422.87 1404.1 1422.87 1322.08 1376.17 1271.48C1329.47 1220.89 1253.75 1220.89 1207.05 1271.48C1160.35 1322.08 1160.35 1404.1 1207.05 1454.7C1253.75 1505.29 1329.47 1505.29 1376.17 1454.7Z" fill="#263238"/>
<path opacity="0.5" d="M644.26 731.715H124.646C120.278 731.715 116.738 735.55 116.738 740.282V941.255C116.738 945.987 120.278 949.822 124.646 949.822H644.26C648.627 949.822 652.168 945.987 652.168 941.255V740.282C652.168 735.55 648.627 731.715 644.26 731.715Z" fill="white"/>
<path opacity="0.7" d="M635.892 749.347H133.013V932.24H635.892V749.347Z" fill="white"/>
<g opacity="0.5">
<path opacity="0.5" d="M318.984 749.347H302.249L266.342 932.24H283.123L318.984 749.347Z" fill="white"/>
<path opacity="0.5" d="M234.297 932.24L270.204 749.347H199.218L163.357 932.24H234.297Z" fill="white"/>
<path opacity="0.5" d="M523.023 749.347H506.288L470.381 932.24H487.162L523.023 749.347Z" fill="white"/>
<path opacity="0.5" d="M474.196 749.347H403.256L367.396 932.24H438.336L474.196 749.347Z" fill="white"/>
</g>
<g opacity="0.2">
<path opacity="0.2" d="M1723.12 731.067H1460.28V1360.74H1723.12V731.067Z" fill="black"/>
</g>
<path opacity="0.2" d="M1611.91 1303.01H1723.12V1360.74L1611.91 1340.02V1303.01Z" fill="black"/>
<path opacity="0.2" d="M1460.46 881.138V1233.38L1570.11 1258.28L1625.51 1178.59C1628.06 1176.4 1630.11 1173.62 1631.52 1170.46C1632.93 1167.29 1633.66 1163.82 1633.65 1160.31V1143.57C1633.65 1137.51 1631.48 1131.69 1627.58 1127.33C1623.68 1122.98 1618.37 1120.45 1612.78 1120.26L1524.64 1117.18C1515.35 1116.87 1506.52 1112.77 1499.91 1105.69C1493.3 1098.61 1489.4 1089.08 1489.01 1079.02L1482.16 903.701C1481.97 897.618 1479.6 891.857 1475.54 887.643C1471.49 883.429 1466.08 881.095 1460.46 881.138Z" fill="black"/>
<path opacity="0.2" d="M1721.79 1011.19L1657.42 1033.95C1654.25 1035.08 1651.49 1037.27 1649.53 1040.2C1647.57 1043.14 1646.52 1046.67 1646.53 1050.28V1050.28C1646.53 1053.43 1647.33 1056.51 1648.83 1059.2C1650.34 1061.89 1652.5 1064.08 1655.08 1065.53L1721.6 1102.58L1721.79 1011.19Z" fill="black"/>
<path d="M1569.97 1258.38H1460.97V1294.84H1569.97V1258.38Z" fill="#407BFF"/>
<path opacity="0.7" d="M1569.97 1258.38H1460.97V1294.84H1569.97V1258.38Z" fill="white"/>
<path opacity="0.9" d="M1611.91 1294.84H1460.97V1340.02H1611.91V1294.84Z" fill="white"/>
<path opacity="0.9" d="M1460.32 1233.48L1569.98 1258.38H1460.97L1460.32 1233.48Z" fill="white"/>
<path opacity="0.7" d="M1611.91 1340.02L1723.12 1360.74H1460.28L1460.97 1340.02H1611.91Z" fill="white"/>
<path opacity="0.4" d="M1658.75 999.082L1668.09 1031.16L1681.83 1026.28L1672.55 994.45L1658.75 999.082Z" fill="white"/>
<path d="M1718.2 985.734L1616.78 1020.6C1615.87 1020.93 1614.92 1021.06 1613.96 1020.99C1613.01 1020.91 1612.08 1020.64 1611.23 1020.17C1610.37 1019.71 1609.61 1019.07 1608.99 1018.29C1608.36 1017.51 1607.88 1016.6 1607.58 1015.62V1015.62C1607.28 1014.64 1607.16 1013.6 1607.23 1012.57C1607.29 1011.54 1607.55 1010.53 1607.98 1009.6C1608.4 1008.68 1608.99 1007.85 1609.72 1007.18C1610.44 1006.5 1611.27 1005.98 1612.18 1005.66L1713.56 970.791C1714.46 970.45 1715.42 970.308 1716.38 970.375C1717.33 970.441 1718.27 970.714 1719.13 971.179C1719.98 971.643 1720.74 972.289 1721.37 973.078C1721.99 973.867 1722.46 974.783 1722.75 975.772V975.772C1723.35 977.748 1723.21 979.899 1722.36 981.763C1721.51 983.627 1720.01 985.053 1718.2 985.734V985.734Z" fill="#263238"/>
<path opacity="0.7" d="M220.596 1301.17H179.632C177.95 1301.17 176.283 1300.82 174.727 1300.13C173.171 1299.43 171.756 1298.41 170.564 1297.13C169.373 1295.84 168.427 1294.31 167.782 1292.63C167.137 1290.95 166.805 1289.14 166.805 1287.32C166.817 1283.64 168.174 1280.12 170.578 1277.52C172.982 1274.93 176.238 1273.47 179.632 1273.47H220.596C223.986 1273.47 227.237 1274.93 229.634 1277.53C232.031 1280.12 233.377 1283.65 233.377 1287.32C233.383 1289.14 233.057 1290.94 232.417 1292.63C231.776 1294.31 230.835 1295.84 229.647 1297.12C228.459 1298.41 227.048 1299.43 225.494 1300.12C223.941 1300.82 222.276 1301.17 220.596 1301.17V1301.17Z" fill="white"/>
<path opacity="0.7" d="M1419.41 1127.54H1378.4C1375.01 1127.52 1371.77 1126.06 1369.37 1123.47C1366.98 1120.87 1365.63 1117.36 1365.62 1113.69C1365.62 1110.01 1366.96 1106.49 1369.36 1103.88C1371.75 1101.28 1375 1099.81 1378.4 1099.79H1419.41C1422.8 1099.81 1426.05 1101.28 1428.45 1103.88C1430.84 1106.49 1432.19 1110.01 1432.19 1113.69C1432.18 1117.36 1430.82 1120.87 1428.43 1123.47C1426.04 1126.06 1422.79 1127.52 1419.41 1127.54V1127.54Z" fill="white"/>
<path opacity="0.2" d="M129.887 1244.73C128.269 1244.73 126.715 1244.04 125.563 1242.81C124.41 1241.58 123.75 1239.91 123.726 1238.16V1138.54C123.726 1136.78 124.369 1135.09 125.514 1133.84C126.66 1132.59 128.215 1131.88 129.841 1131.87C130.65 1131.87 131.451 1132.04 132.198 1132.38C132.946 1132.71 133.625 1133.2 134.197 1133.82C134.769 1134.44 135.223 1135.18 135.532 1135.99C135.842 1136.8 136.001 1137.67 136.001 1138.54V1238.16C135.977 1239.9 135.324 1241.57 134.181 1242.8C133.038 1244.03 131.497 1244.72 129.887 1244.73V1244.73Z" fill="black"/>
<path opacity="0.2" d="M154.437 1244.73C152.812 1244.73 151.251 1244.04 150.097 1242.8C148.943 1241.56 148.289 1239.87 148.277 1238.11V1138.49C148.277 1136.72 148.926 1135.03 150.081 1133.77C151.237 1132.52 152.804 1131.82 154.437 1131.82C155.25 1131.83 156.053 1132.02 156.799 1132.37C157.545 1132.72 158.219 1133.23 158.784 1133.86C159.348 1134.5 159.79 1135.25 160.086 1136.07C160.382 1136.89 160.524 1137.76 160.506 1138.64V1238.26C160.459 1239.98 159.802 1241.61 158.671 1242.82C157.541 1244.02 156.024 1244.71 154.437 1244.73V1244.73Z" fill="black"/>
<path opacity="0.2" d="M178.896 1244.73C177.275 1244.73 175.719 1244.04 174.573 1242.79C173.426 1241.55 172.782 1239.87 172.782 1238.11V1138.49C172.806 1136.75 173.461 1135.09 174.605 1133.87C175.749 1132.65 177.29 1131.97 178.896 1131.97V1131.97C179.703 1131.97 180.502 1132.14 181.247 1132.48C181.992 1132.81 182.668 1133.31 183.236 1133.93C183.805 1134.55 184.254 1135.28 184.559 1136.09C184.863 1136.9 185.017 1137.77 185.011 1138.64V1238.26C184.975 1239.99 184.315 1241.64 183.172 1242.85C182.029 1244.06 180.494 1244.73 178.896 1244.73V1244.73Z" fill="black"/>
<path opacity="0.2" d="M203.447 1244.73C201.829 1244.73 200.276 1244.04 199.123 1242.81C197.97 1241.58 197.311 1239.91 197.287 1238.16V1138.54C197.287 1136.78 197.929 1135.09 199.075 1133.84C200.22 1132.59 201.775 1131.88 203.401 1131.87C205.035 1131.87 206.602 1132.57 207.757 1133.82C208.913 1135.08 209.562 1136.77 209.562 1138.54V1238.16C209.538 1239.9 208.885 1241.57 207.742 1242.8C206.599 1244.03 205.057 1244.72 203.447 1244.73V1244.73Z" fill="black"/>
<path opacity="0.2" d="M227.998 1244.73C226.372 1244.73 224.812 1244.04 223.658 1242.8C222.503 1241.56 221.849 1239.87 221.837 1238.11V1138.49C221.837 1136.72 222.486 1135.03 223.641 1133.77C224.797 1132.52 226.364 1131.82 227.998 1131.82C228.811 1131.83 229.613 1132.02 230.359 1132.37C231.105 1132.72 231.78 1133.23 232.344 1133.86C232.908 1134.5 233.351 1135.25 233.646 1136.07C233.942 1136.89 234.085 1137.76 234.066 1138.64V1238.26C234.019 1239.98 233.362 1241.61 232.231 1242.82C231.101 1244.02 229.584 1244.71 227.998 1244.73V1244.73Z" fill="black"/>
<path d="M708.763 733.906H900.711C903.174 733.906 905.614 734.432 907.889 735.453C910.165 736.474 912.233 737.971 913.975 739.858C915.717 741.745 917.098 743.986 918.041 746.451C918.984 748.917 919.469 751.559 919.469 754.228V1361.53H690.005V754.228C690.005 748.838 691.982 743.669 695.499 739.858C699.017 736.047 703.788 733.906 708.763 733.906V733.906Z" fill="#407BFF"/>
<path opacity="0.5" d="M1460.32 1243.44H1390.35C1362.44 1218.73 1327.49 1205.26 1291.44 1205.32C1255.4 1205.39 1220.49 1218.98 1192.66 1243.79L853.31 1244.43C845.889 1244.44 838.54 1242.86 831.684 1239.79C824.827 1236.71 818.6 1232.19 813.358 1226.5L684.075 1086.84C678.802 1081.12 672.539 1076.58 665.643 1073.49C658.747 1070.39 651.356 1068.8 643.892 1068.81H0.879395V989.519H674.374C681.784 989.514 689.122 991.091 695.969 994.159C702.816 997.227 709.039 1001.73 714.281 1007.4L843.38 1147.26C848.655 1152.98 854.919 1157.51 861.814 1160.61C868.709 1163.7 876.099 1165.29 883.562 1165.29L1460.05 1168.43L1460.32 1243.44Z" fill="white"/>
<path opacity="0.1" d="M708.763 733.906H900.711C903.174 733.906 905.614 734.432 907.889 735.453C910.165 736.474 912.233 737.971 913.975 739.858C915.717 741.745 917.098 743.986 918.041 746.451C918.984 748.917 919.469 751.559 919.469 754.228V1361.53H690.005V754.228C690.005 748.838 691.982 743.669 695.499 739.858C699.017 736.047 703.788 733.906 708.763 733.906V733.906Z" fill="black"/>
<path opacity="0.5" d="M889.492 748.45H721.912C712.416 748.45 704.717 756.79 704.717 767.078V948.627C704.717 958.915 712.416 967.255 721.912 967.255H889.492C898.989 967.255 906.687 958.915 906.687 948.627V767.078C906.687 756.79 898.989 748.45 889.492 748.45Z" fill="white"/>
<path opacity="0.7" d="M892.527 764.986H719.567V952.363H892.527V764.986Z" fill="white"/>
<g opacity="0.5">
<path opacity="0.5" d="M827.288 765.634L790.646 952.363H719.66L756.348 765.634H827.288Z" fill="white"/>
<path opacity="0.5" d="M876.114 765.634L839.472 952.363H822.69L859.333 765.634H876.114Z" fill="white"/>
</g>
<path opacity="0.5" d="M1291.96 1446.65C1334.54 1446.65 1369.06 1409.26 1369.06 1363.13C1369.06 1317 1334.54 1279.6 1291.96 1279.6C1249.38 1279.6 1214.86 1317 1214.86 1363.13C1214.86 1409.26 1249.38 1446.65 1291.96 1446.65Z" fill="white"/>
<path opacity="0.3" d="M1361.43 1363.08C1361.44 1366.59 1361.2 1370.11 1360.74 1373.59C1359.15 1386.05 1354.7 1397.89 1347.78 1408C1343.88 1413.77 1339.24 1418.88 1333.98 1423.19C1324.77 1430.86 1313.92 1435.88 1302.44 1437.79C1298.84 1438.52 1295.17 1438.92 1291.5 1438.98C1288.43 1438.97 1285.36 1438.74 1282.31 1438.29C1270.81 1436.64 1259.88 1431.87 1250.54 1424.44C1244.94 1420.05 1239.99 1414.76 1235.87 1408.75C1226.8 1395.64 1221.88 1379.71 1221.85 1363.33C1221.85 1359.56 1222.11 1355.79 1222.63 1352.07C1225.26 1333.2 1234.37 1316.1 1248.14 1304.2C1261.92 1292.31 1279.33 1286.49 1296.9 1287.91C1314.46 1289.33 1330.88 1297.9 1342.87 1311.88C1354.85 1325.87 1361.52 1344.24 1361.52 1363.33L1361.43 1363.08Z" fill="white"/>
<path opacity="0.4" d="M1344.66 1377.27C1351.59 1345.43 1333.39 1313.54 1304.01 1306.02C1274.63 1298.51 1245.19 1318.23 1238.25 1350.06C1231.32 1381.89 1249.51 1413.79 1278.9 1421.3C1308.28 1428.81 1337.72 1409.1 1344.66 1377.27Z" fill="white"/>
<path opacity="0.2" d="M1325.44 1373C1329.88 1352.66 1318.25 1332.27 1299.46 1327.47C1280.68 1322.66 1261.86 1335.27 1257.43 1355.61C1253 1375.96 1264.63 1396.35 1283.41 1401.15C1302.19 1405.95 1321.01 1393.35 1325.44 1373Z" fill="black"/>
<path d="M1291.09 1382.35C1300.51 1382.35 1308.15 1374.08 1308.15 1363.87C1308.15 1353.67 1300.51 1345.39 1291.09 1345.39C1281.67 1345.39 1274.03 1353.67 1274.03 1363.87C1274.03 1374.08 1281.67 1382.35 1291.09 1382.35Z" fill="#263238"/>
<path d="M1302.35 1288.32C1301.49 1290.4 1300.09 1292.17 1298.32 1293.41C1296.55 1294.65 1294.48 1295.3 1292.38 1295.29C1290.23 1295.29 1288.13 1294.61 1286.33 1293.34C1284.54 1292.06 1283.12 1290.25 1282.26 1288.12C1288.92 1287.06 1295.69 1287.06 1302.35 1288.12V1288.32Z" fill="#263238"/>
<path d="M1302.4 1437.79C1298.8 1438.52 1295.16 1438.92 1291.5 1438.98C1288.43 1438.97 1285.36 1438.74 1282.31 1438.29C1283.15 1436.16 1284.54 1434.34 1286.32 1433.05C1288.1 1431.77 1290.19 1431.07 1292.32 1431.04C1294.46 1431.01 1296.56 1431.66 1298.37 1432.9C1300.17 1434.15 1301.6 1435.93 1302.49 1438.04L1302.4 1437.79Z" fill="#263238"/>
<path d="M1248.15 1315.11C1246.57 1316.84 1244.54 1317.99 1242.34 1318.43C1240.14 1318.87 1237.86 1318.56 1235.83 1317.55C1239.97 1311.58 1244.91 1306.31 1250.49 1301.91C1251.37 1304.11 1251.62 1306.55 1251.2 1308.9C1250.79 1311.26 1249.72 1313.42 1248.15 1315.11V1315.11Z" fill="#263238"/>
<path d="M1347.78 1408C1343.88 1413.77 1339.24 1418.88 1333.98 1423.19C1333.34 1421.1 1333.24 1418.86 1333.7 1416.71C1334.15 1414.56 1335.15 1412.59 1336.58 1411.02C1338.01 1409.44 1339.81 1408.33 1341.79 1407.8C1343.76 1407.27 1345.84 1407.34 1347.78 1408V1408Z" fill="#263238"/>
<path d="M1229.85 1363.03C1229.85 1365.48 1229.14 1367.88 1227.83 1369.89C1226.53 1371.89 1224.68 1373.41 1222.54 1374.23C1222.02 1370.54 1221.76 1366.81 1221.76 1363.08C1221.76 1359.31 1222.02 1355.55 1222.54 1351.82C1224.68 1352.64 1226.53 1354.16 1227.83 1356.17C1229.14 1358.17 1229.85 1360.57 1229.85 1363.03V1363.03Z" fill="#263238"/>
<path d="M1361.43 1363.08C1361.44 1366.59 1361.2 1370.11 1360.74 1373.59C1358.97 1372.57 1357.49 1371.05 1356.46 1369.19C1355.43 1367.33 1354.88 1365.2 1354.88 1363.03C1354.88 1360.86 1355.43 1358.73 1356.46 1356.87C1357.49 1355.01 1358.97 1353.49 1360.74 1352.47C1361.2 1355.98 1361.43 1359.53 1361.43 1363.08V1363.08Z" fill="#263238"/>
<path d="M1250.45 1424.04C1244.84 1419.66 1239.9 1414.36 1235.78 1408.35C1237.81 1407.35 1240.08 1407.04 1242.28 1407.47C1244.48 1407.89 1246.51 1409.03 1248.1 1410.73C1249.69 1412.43 1250.76 1414.61 1251.18 1416.99C1251.6 1419.37 1251.34 1421.83 1250.45 1424.04V1424.04Z" fill="#263238"/>
<path d="M1347.73 1318.05C1345.81 1318.69 1343.77 1318.75 1341.82 1318.23C1339.88 1317.7 1338.1 1316.61 1336.68 1315.08C1335.26 1313.54 1334.26 1311.62 1333.77 1309.51C1333.29 1307.4 1333.35 1305.18 1333.94 1303.11C1339.16 1307.36 1343.8 1312.39 1347.73 1318.05V1318.05Z" fill="#263238"/>
<path d="M1667.77 1239.45L1675.95 1290.76L1690.52 1289.81L1693.47 1235.42L1667.77 1239.45Z" fill="#B97964"/>
<path d="M1691.72 1281.94L1674.62 1282.94C1674.25 1282.94 1673.9 1283.08 1673.63 1283.34C1673.35 1283.59 1673.16 1283.94 1673.1 1284.33L1670.39 1301.91C1670.28 1302.66 1670.45 1303.42 1670.85 1304.03C1671.25 1304.65 1671.86 1305.07 1672.55 1305.2H1673.1C1680.18 1304.65 1686.48 1303.86 1695.31 1303.41C1705.74 1302.81 1703.17 1304.3 1715.4 1303.81C1722.8 1303.51 1723.72 1294.29 1720.55 1293.84C1711.39 1293.87 1702.6 1289.96 1696.09 1282.99C1694.79 1282.08 1693.24 1281.71 1691.72 1281.94V1281.94Z" fill="#263238"/>
<path d="M1550.48 1057.86C1550.48 1057.86 1650.66 1063.43 1677.1 1085.25C1703.54 1107.07 1692.92 1260.92 1692.92 1260.92H1670.52C1646.71 1143.77 1655.21 1113.84 1655.21 1113.84C1655.21 1113.84 1567.86 1112.89 1532.74 1111.95C1506.07 1111.2 1483.96 1128.13 1478.16 1044.91L1548.23 1039.43L1550.48 1057.86Z" fill="#263238"/>
<path opacity="0.1" d="M1550.48 1057.86C1550.48 1057.86 1650.66 1063.43 1677.1 1085.25C1703.54 1107.07 1692.92 1260.92 1692.92 1260.92H1670.52C1646.71 1143.77 1655.21 1113.84 1655.21 1113.84C1655.21 1113.84 1567.86 1112.89 1532.74 1111.95C1506.07 1111.2 1483.96 1128.13 1478.16 1044.91L1548.23 1039.43L1550.48 1057.86Z" fill="black"/>
<path d="M1626.25 1243.24L1627.54 1295.29L1642.66 1285.58L1652.23 1243.24H1626.25Z" fill="#B97964"/>
<path d="M1642.62 1284.58L1625.47 1284.98C1625.11 1284.98 1624.76 1285.13 1624.48 1285.38C1624.2 1285.63 1624.02 1285.99 1623.95 1286.37L1620.73 1303.81C1620.66 1304.17 1620.65 1304.55 1620.71 1304.92C1620.78 1305.29 1620.9 1305.64 1621.09 1305.96C1621.28 1306.27 1621.52 1306.54 1621.81 1306.75C1622.1 1306.97 1622.42 1307.12 1622.76 1307.19H1623.31C1630.43 1306.89 1636.73 1306.35 1645.56 1306.15C1656 1305.9 1653.38 1307.34 1665.65 1307.24C1673.05 1307.24 1674.25 1298.03 1671.08 1297.68C1661.92 1297.4 1653.24 1293.19 1646.94 1285.97C1645.7 1284.96 1644.17 1284.46 1642.62 1284.58V1284.58Z" fill="#263238"/>
<path d="M1648.13 1265.1H1625.15C1619.91 1148.85 1627.72 1123 1627.72 1123C1627.72 1123 1532.37 1120.26 1501.56 1113.69C1495.97 1112.37 1491.05 1108.81 1487.77 1103.73C1485.52 1100.28 1483.73 1096.51 1482.44 1092.52C1474.58 1069.41 1477.84 1036.19 1477.84 1036.19L1511.59 1034.64L1525.38 1034L1550.57 1032.85L1554.39 1052.77C1554.39 1052.77 1645.88 1061.14 1665.19 1090.43C1684.5 1119.72 1648.13 1265.1 1648.13 1265.1Z" fill="#263238"/>
<path d="M1622.48 1256.54L1624 1268.34H1650.16L1652.96 1256.54H1622.48Z" fill="#263238"/>
<path opacity="0.2" d="M1622.48 1256.54L1624 1268.34H1650.16L1652.96 1256.54H1622.48Z" fill="white"/>
<path d="M1667.95 1256.04L1670.06 1267.74L1696.18 1266.1L1698.34 1254.15L1667.95 1256.04Z" fill="#263238"/>
<path opacity="0.2" d="M1667.95 1256.04L1670.06 1267.74L1696.18 1266.1L1698.34 1254.15L1667.95 1256.04Z" fill="white"/>
<path d="M1516.23 877.502C1516.23 877.502 1510.76 893.141 1516.92 903.701L1487.36 898.72C1487.36 898.72 1496.55 878.797 1493.33 866.743C1493.33 866.843 1512.74 870.479 1516.23 877.502Z" fill="#B97964"/>
<path opacity="0.1" d="M1493.06 864.801C1499.04 866.444 1513.98 872.969 1516.05 877.502C1515.36 879.631 1514.83 881.812 1514.44 884.026C1498.07 884.574 1494.99 869.283 1493.06 864.801Z" fill="black"/>
<path d="M1577.38 884.026L1573.42 869.732L1579.68 856.034L1591.72 863.207L1589.19 874.413L1590.66 882.134C1590.85 883.131 1590.84 884.158 1590.64 885.152C1590.45 886.146 1590.06 887.085 1589.51 887.911L1585.97 893.34L1584.96 908.582L1573.42 906.041L1577.38 884.026Z" fill="#B97964"/>
<path d="M1559.82 966.757C1548.99 960.118 1538.87 952.2 1529.66 943.148C1521.01 934.133 1510.85 922.329 1510.58 910.624C1510.3 898.919 1521.43 893.839 1527.73 901.409C1539.2 914.878 1551.49 927.507 1564.51 939.213C1567.63 923.823 1571.54 902.256 1574.67 886.865C1578.08 890.676 1582.69 892.968 1587.58 893.291C1588.81 913.618 1586.96 934.025 1582.11 953.707C1581.7 955.501 1581.19 957.244 1580.64 958.987C1579.98 961.187 1578.86 963.191 1577.36 964.841C1575.87 966.491 1574.04 967.742 1572.02 968.495C1570 969.249 1567.84 969.484 1565.73 969.182C1563.61 968.88 1561.59 968.05 1559.82 966.757V966.757Z" fill="#407BFF"/>
<path opacity="0.4" d="M1559.82 966.757C1548.99 960.118 1538.87 952.2 1529.66 943.148C1521.01 934.133 1510.85 922.329 1510.58 910.624C1510.3 898.919 1521.43 893.839 1527.73 901.409C1539.2 914.878 1551.49 927.507 1564.51 939.213C1567.63 923.823 1571.54 902.256 1574.67 886.865C1578.08 890.676 1582.69 892.968 1587.58 893.291C1588.81 913.618 1586.96 934.025 1582.11 953.707C1581.7 955.501 1581.19 957.244 1580.64 958.987C1579.98 961.187 1578.86 963.191 1577.36 964.841C1575.87 966.491 1574.04 967.742 1572.02 968.495C1570 969.249 1567.84 969.484 1565.73 969.182C1563.61 968.88 1561.59 968.05 1559.82 966.757V966.757Z" fill="white"/>
<path d="M1492.55 890.103C1480.05 890.103 1459.31 898.371 1467.68 967.205C1476.05 1036.04 1474.76 1050.48 1474.76 1050.48C1474.76 1050.48 1492.92 1052.92 1556.46 1048.44C1551.64 1022.67 1548.57 996.551 1547.26 970.293C1545.79 929.053 1539.77 890.402 1492.55 890.103Z" fill="#407BFF"/>
<path opacity="0.5" d="M1492.55 890.103C1480.05 890.103 1459.31 898.371 1467.68 967.205C1476.05 1036.04 1474.76 1050.48 1474.76 1050.48C1474.76 1050.48 1492.92 1052.92 1556.46 1048.44C1551.64 1022.67 1548.57 996.551 1547.26 970.293C1545.79 929.053 1539.77 890.402 1492.55 890.103Z" fill="white"/>
<path d="M1480 893.888C1481.22 890.226 1483.71 887.223 1486.94 885.521C1490.76 883.977 1508 886.318 1516.37 889.455C1520.14 890.9 1526.02 899.417 1528.74 903.003C1528.74 903.003 1516.55 894.586 1519.03 908.532L1506.02 899.317C1499.72 896.379 1489.84 890.302 1480 893.888Z" fill="#407BFF"/>
<path d="M1543.03 925.964C1542.94 953.202 1539.57 980.31 1533.01 1006.6C1530.73 1015.89 1527.93 1025.02 1524.64 1033.95C1515.34 1058.99 1502.78 1082.47 1487.36 1103.68C1485.11 1100.23 1483.32 1096.46 1482.02 1092.47C1493.79 1074.51 1503.51 1055.07 1510.99 1034.59C1525.91 993.683 1533.39 950.03 1533.01 906.041C1533.01 906.041 1543.03 914.758 1543.03 925.964Z" fill="#263238"/>
<path d="M1593.65 989.021L1620.32 993.454H1638.11C1644.51 995.266 1650.12 999.442 1653.97 1005.26C1654.27 1005.71 1654.47 1006.23 1654.55 1006.77C1654.62 1007.32 1654.57 1007.88 1654.41 1008.4C1654.24 1008.93 1653.96 1009.4 1653.59 1009.78C1653.21 1010.16 1652.76 1010.44 1652.27 1010.59L1640.13 1014.12C1638.05 1014.72 1635.83 1014.43 1633.93 1013.33L1619.58 1004.81L1589.19 1007.1L1593.65 989.021Z" fill="#B97964"/>
<path d="M1605.79 1009.34C1605.79 1009.34 1548.41 1011.78 1518.07 986.232C1503.36 973.879 1485.24 953.159 1478.16 936.424C1470.62 918.742 1474.07 904.199 1480.83 900.114C1494.3 891.996 1513.84 937.121 1532.78 957.044C1551.72 976.967 1608.73 989.071 1608.73 989.071L1605.79 1009.34Z" fill="#407BFF"/>
<path opacity="0.4" d="M1605.79 1009.34C1605.79 1009.34 1548.41 1011.78 1518.07 986.232C1503.36 973.879 1485.24 953.159 1478.16 936.424C1470.62 918.742 1474.07 904.199 1480.83 900.114C1494.3 891.996 1513.84 937.121 1532.78 957.044C1551.72 976.967 1608.73 989.071 1608.73 989.071L1605.79 1009.34Z" fill="white"/>
<path opacity="0.1" d="M1516.78 890.103L1518.76 908.532C1518.76 908.532 1517.29 900.961 1521.29 900.563C1523.87 900.402 1526.42 901.27 1528.46 903.003C1528.46 903.003 1520.05 890.501 1516.78 890.103Z" fill="black"/>
<path d="M1517.43 843.134C1508.51 832.376 1506.67 815.74 1508.51 812.801C1510.35 809.863 1529.2 809.913 1531.17 812.054C1541.06 822.414 1528.64 837.556 1528.64 837.556L1531.08 844.678L1517.43 843.134Z" fill="#263238"/>
<path d="M1486.35 836.311C1488.28 853.644 1488.6 863.904 1497.24 872.322C1500.15 875.045 1503.68 876.871 1507.46 877.611C1511.24 878.35 1515.13 877.974 1518.73 876.523C1522.33 875.071 1525.51 872.598 1527.92 869.361C1530.34 866.125 1531.9 862.245 1532.46 858.126C1535.04 842.188 1531.4 816.537 1515.31 810.66C1512.57 809.643 1509.67 809.223 1506.78 809.424C1503.89 809.626 1501.06 810.444 1498.47 811.833C1495.87 813.222 1493.55 815.153 1491.64 817.516C1489.74 819.879 1488.28 822.627 1487.36 825.602C1486.29 829.046 1485.95 832.704 1486.35 836.311Z" fill="#B97964"/>
<path d="M1483.5 843.682C1475.59 832.077 1480.28 811.457 1482.48 808.817C1488.37 801.993 1493.75 805.181 1500.6 812.154C1510.71 822.116 1495.22 839.399 1495.22 839.399L1496.97 846.82L1483.5 843.682Z" fill="#263238"/>
<path d="M1512.18 839.897C1512.18 841.341 1512.64 842.537 1513.52 842.587C1514.39 842.636 1515.13 841.59 1515.27 840.196C1515.4 838.801 1514.76 837.556 1513.89 837.506C1513.01 837.456 1512.41 838.502 1512.18 839.897Z" fill="#263238"/>
<path d="M1527.03 841.292C1527.03 842.736 1527.54 843.931 1528.37 844.031C1529.2 844.131 1530.02 843.035 1530.12 841.59C1530.21 840.146 1529.66 838.951 1528.78 838.901C1527.91 838.851 1527.17 839.897 1527.03 841.292Z" fill="#263238"/>
<path d="M1520.41 853.943L1520.97 854.391C1520.33 853.827 1519.58 853.455 1518.77 853.315C1517.96 853.175 1517.13 853.271 1516.37 853.594C1514.85 854.092 1513.52 855.138 1512.05 855.785C1511.34 856.191 1510.55 856.403 1509.75 856.403C1508.95 856.403 1508.16 856.191 1507.45 855.785C1508.25 858.767 1510.07 861.3 1512.55 862.858C1513.96 863.799 1515.63 864.151 1517.25 863.848C1518.88 863.545 1520.35 862.608 1521.38 861.214C1522.05 862.518 1523.04 863.594 1524.24 864.324C1525.44 865.054 1526.81 865.408 1528.18 865.348C1529.52 865.167 1530.78 864.573 1531.82 863.637C1532.85 862.701 1533.62 861.463 1534.02 860.069C1533.24 860.401 1532.38 860.469 1531.56 860.265C1530.74 860.061 1530 859.593 1529.43 858.923C1528.44 857.544 1527.38 856.23 1526.25 854.988C1524.83 853.644 1521.38 852.697 1520.41 853.943Z" fill="#263238"/>
<path d="M1521.38 841.291C1522.61 845.747 1524.39 850.002 1526.67 853.943C1525.72 854.545 1524.66 854.918 1523.57 855.039C1522.47 855.159 1521.36 855.023 1520.32 854.64L1521.38 841.291Z" fill="#A24E3F"/>
<path d="M1507.59 832.774H1507.22C1507.07 832.616 1506.99 832.401 1506.99 832.177C1506.99 831.953 1507.07 831.738 1507.22 831.579C1508.01 830.577 1509.01 829.796 1510.14 829.302C1511.27 828.808 1512.49 828.615 1513.7 828.74C1513.8 828.752 1513.9 828.786 1513.99 828.841C1514.08 828.896 1514.16 828.971 1514.22 829.06C1514.28 829.149 1514.32 829.25 1514.34 829.358C1514.36 829.466 1514.37 829.578 1514.35 829.686C1514.33 829.796 1514.3 829.902 1514.25 829.998C1514.2 830.094 1514.13 830.178 1514.05 830.243C1513.97 830.309 1513.87 830.355 1513.78 830.379C1513.68 830.403 1513.57 830.405 1513.47 830.384C1512.52 830.309 1511.56 830.477 1510.67 830.875C1509.78 831.272 1509 831.889 1508.37 832.675C1508.26 832.765 1508.13 832.821 1507.99 832.839C1507.85 832.856 1507.71 832.834 1507.59 832.774V832.774Z" fill="#263238"/>
<path d="M1533.33 835.414C1533.2 835.393 1533.07 835.33 1532.96 835.233C1532.86 835.137 1532.78 835.009 1532.74 834.866C1532.42 833.889 1531.9 833.005 1531.22 832.287C1530.53 831.568 1529.69 831.036 1528.78 830.732C1528.6 830.665 1528.45 830.528 1528.36 830.348C1528.26 830.169 1528.23 829.958 1528.27 829.757C1528.31 829.555 1528.42 829.376 1528.57 829.253C1528.72 829.13 1528.91 829.071 1529.1 829.089C1530.28 829.454 1531.37 830.119 1532.26 831.029C1533.16 831.938 1533.84 833.066 1534.25 834.318C1534.29 834.416 1534.31 834.521 1534.31 834.627C1534.31 834.733 1534.29 834.838 1534.25 834.936C1534.21 835.033 1534.15 835.121 1534.08 835.195C1534.01 835.268 1533.93 835.326 1533.84 835.364V835.364C1533.76 835.416 1533.68 835.447 1533.59 835.456C1533.5 835.465 1533.41 835.45 1533.33 835.414V835.414Z" fill="#263238"/>
<path d="M1478.94 836.659C1478.94 836.659 1474.35 818.081 1476.83 809.215C1479.31 800.35 1489.1 792.829 1500.42 789.89C1511.73 786.951 1527.49 788.944 1535.63 818.031L1506.81 815.89L1492.46 823.211L1478.94 836.659Z" fill="#407BFF"/>
<path opacity="0.7" d="M1478.94 836.659C1478.94 836.659 1474.35 818.081 1476.83 809.215C1479.31 800.35 1489.1 792.829 1500.42 789.89C1511.73 786.951 1527.49 788.944 1535.63 818.031L1506.81 815.89L1492.46 823.211L1478.94 836.659Z" fill="white"/>
<path opacity="0.4" d="M1535.54 817.683C1527.36 788.944 1511.68 787.001 1500.42 789.89C1486.02 798.756 1494.85 821.966 1494.85 821.966L1506.99 815.79L1525.66 817.135L1535.54 817.683Z" fill="white"/>
<path d="M1479.63 839.349C1479.63 839.349 1503.27 807.472 1535.4 821.12C1535.4 821.12 1556.32 815.392 1539.72 808.966C1515.45 799.603 1495.45 819.775 1495.45 819.775C1495.45 819.775 1474.03 833.073 1479.63 839.349Z" fill="#407BFF"/>
<path opacity="0.7" d="M1479.63 839.349C1479.63 839.349 1503.27 807.472 1535.4 821.12C1535.4 821.12 1556.32 815.392 1539.72 808.966C1515.45 799.603 1495.45 819.775 1495.45 819.775C1495.45 819.775 1474.03 833.073 1479.63 839.349Z" fill="white"/>
<path d="M1478.48 847.916C1479.38 849.869 1480.63 851.611 1482.15 853.039C1483.67 854.466 1485.44 855.552 1487.36 856.234C1492.51 857.977 1495.27 853.046 1493.98 847.717C1492.69 842.387 1488.74 836.211 1483.54 836.809C1482.41 836.95 1481.33 837.396 1480.4 838.106C1479.48 838.815 1478.72 839.766 1478.22 840.87C1477.72 841.975 1477.48 843.199 1477.53 844.43C1477.57 845.66 1477.9 846.859 1478.48 847.916V847.916Z" fill="#B97964"/>
</svg>
