<svg width="198" height="250" viewBox="0 0 198 250" fill="none" xmlns="http://www.w3.org/2000/svg">
<path d="M197.321 184.765L187.06 107.031C186.061 99.5493 180.95 94.0594 174.917 94.0594H80.8414V62.9659H117.734C121.115 62.9659 123.882 59.4679 123.882 55.1926V8.50383C123.882 4.22848 121.115 0.730469 117.734 0.730469H19.3544C15.9726 0.730469 13.2057 4.22848 13.2057 8.50383V55.144C13.2057 59.4193 15.9726 62.9174 19.3544 62.9174H56.2466V94.0108H23.6201C17.6251 94.0108 12.4755 99.5007 11.4764 106.983L1.21574 184.716C0.985161 186.417 0.869873 188.117 0.869873 189.817V233.931C0.869873 242.531 6.36528 249.478 13.1673 249.478H185.331C192.133 249.478 197.628 242.531 197.628 233.931V189.866C197.667 188.166 197.551 186.465 197.321 184.765ZM108.511 121.218C108.511 116.942 111.278 113.444 114.659 113.444H120.808C124.19 113.444 126.957 116.942 126.957 121.218V128.991C126.957 133.266 124.19 136.764 120.808 136.764H114.659C111.278 136.764 108.511 133.266 108.511 128.991V121.218ZM96.2132 152.311H102.362C105.744 152.311 108.511 155.809 108.511 160.084V167.858C108.511 172.133 105.744 175.631 102.362 175.631H96.2132C92.8314 175.631 90.0645 172.133 90.0645 167.858V160.084C90.0645 155.809 92.8314 152.311 96.2132 152.311ZM83.9158 113.444C87.2976 113.444 90.0645 116.942 90.0645 121.218V128.991C90.0645 133.266 87.2976 136.764 83.9158 136.764H77.7671C74.3853 136.764 71.6184 133.266 71.6184 128.991V121.218C71.6184 116.942 74.3853 113.444 77.7671 113.444H83.9158ZM31.6518 39.5973V24.0506H105.436V39.5973H31.6518ZM47.0236 136.764H40.8749C37.4931 136.764 34.7262 133.266 34.7262 128.991V121.218C34.7262 116.942 37.4931 113.444 40.8749 113.444H47.0236C50.4054 113.444 53.1723 116.942 53.1723 121.218V128.991C53.1723 133.266 50.4054 136.764 47.0236 136.764ZM53.1723 167.858V160.084C53.1723 155.809 55.9392 152.311 59.321 152.311H65.4697C68.8515 152.311 71.6184 155.809 71.6184 160.084V167.858C71.6184 172.133 68.8515 175.631 65.4697 175.631H59.321C55.9392 175.631 53.1723 172.133 53.1723 167.858ZM136.18 222.271C136.18 224.409 134.796 226.158 133.105 226.158H65.4697C63.7788 226.158 62.3953 224.409 62.3953 222.271V214.498C62.3953 212.36 63.7788 210.611 65.4697 210.611H133.105C134.796 210.611 136.18 212.36 136.18 214.498V222.271ZM145.403 167.858C145.403 172.133 142.636 175.631 139.254 175.631H133.105C129.724 175.631 126.957 172.133 126.957 167.858V160.084C126.957 155.809 129.724 152.311 133.105 152.311H139.254C142.636 152.311 145.403 155.809 145.403 160.084V167.858ZM163.849 128.991C163.849 133.266 161.082 136.764 157.7 136.764H151.552C148.17 136.764 145.403 133.266 145.403 128.991V121.218C145.403 116.942 148.17 113.444 151.552 113.444H157.7C161.082 113.444 163.849 116.942 163.849 121.218V128.991Z" fill="#177962"/>
</svg>
