<svg width="30" height="30" viewBox="0 0 30 30" fill="none" xmlns="http://www.w3.org/2000/svg">
<path fill-rule="evenodd" clip-rule="evenodd" d="M0 0H30V30H0V0ZM19.9688 11.9356C21.8881 11.2806 21.5475 10.1856 20.9125 9.375H9.26188C8.4675 10.2181 7.9425 11.3675 10.0238 12.0113C9.95581 12.7086 10.0352 13.4125 10.2568 14.0772C10.4783 14.7419 10.8371 15.3526 11.3099 15.8698C11.7827 16.3869 12.3589 16.7989 13.0011 17.079C13.6433 17.3592 14.3372 17.5012 15.0379 17.4959C15.7385 17.4906 16.4303 17.3382 17.0682 17.0484C17.7061 16.7586 18.276 16.3379 18.7409 15.8137C19.2059 15.2895 19.5554 14.6735 19.7669 14.0055C19.9784 13.3375 20.0472 12.6325 19.9688 11.9362V11.9356ZM18.7425 12.26C17.7613 12.4125 16.4813 12.5 14.83 12.5C13.3413 12.5 12.1694 12.4294 11.255 12.3031C11.2286 12.813 11.3066 13.323 11.4843 13.8017C11.6619 14.2803 11.9355 14.7177 12.2881 15.087C12.6408 15.4562 13.0651 15.7495 13.5352 15.949C14.0052 16.1484 14.511 16.2498 15.0216 16.2468C15.5322 16.2439 16.0368 16.1367 16.5045 15.9319C16.9722 15.727 17.3931 15.4288 17.7415 15.0555C18.0899 14.6823 18.3584 14.2418 18.5305 13.7611C18.7026 13.2804 18.7748 12.7696 18.7425 12.26ZM14.375 20.0387V22.6069C14.0949 22.7062 13.8424 22.8706 13.6381 23.0865C13.4339 23.3023 13.2837 23.5636 13.2 23.8488L10.3769 23.0925C10.7144 22.2758 11.2621 21.563 11.9643 21.0265C12.6665 20.49 13.4983 20.149 14.375 20.0381V20.0387ZM15.625 20.0387V22.6069C16.19 22.8069 16.6313 23.2694 16.8 23.8488L19.6231 23.0925C19.2856 22.2758 18.7379 21.563 18.0357 21.0265C17.3335 20.49 16.5017 20.149 15.625 20.0381V20.0387ZM19.9513 24.2981L16.6987 25.17C16.5478 25.4932 16.3078 25.7665 16.0069 25.9581C15.706 26.1496 15.3567 26.2514 15 26.2514C14.6433 26.2514 14.294 26.1496 13.9931 25.9581C13.6922 25.7665 13.4522 25.4932 13.3012 25.17L10.0487 24.2981C10.0162 24.5307 9.99989 24.7652 10 25V25.625C10 25.7908 9.93415 25.9497 9.81694 26.0669C9.69973 26.1842 9.54076 26.25 9.375 26.25C9.20924 26.25 9.05027 26.1842 8.93306 26.0669C8.81585 25.9497 8.75 25.7908 8.75 25.625V25.2456C8.59603 25.3758 8.41282 25.4668 8.21603 25.5108C8.01925 25.5547 7.81474 25.5504 7.62 25.4981L6.4125 25.1744C6.25392 25.1319 6.10526 25.0586 5.97502 24.9586C5.84478 24.8586 5.73551 24.734 5.65344 24.5918C5.57137 24.4496 5.51812 24.2927 5.49673 24.1299C5.47533 23.9671 5.48621 23.8017 5.52875 23.6431L6.01375 21.8325C6.05625 21.6739 6.12957 21.5253 6.22953 21.395C6.32948 21.2648 6.45412 21.1555 6.59631 21.0734C6.73851 20.9914 6.89548 20.9381 7.05825 20.9167C7.22103 20.8953 7.38643 20.9062 7.545 20.9488L8.7525 21.2719C8.92551 21.3182 9.08652 21.4012 9.22457 21.5153C9.36262 21.6294 9.47447 21.7719 9.5525 21.9331C10.0964 20.9669 10.8876 20.1629 11.845 19.6035C12.8023 19.0441 13.8912 18.7495 15 18.75C16.1082 18.7496 17.1966 19.0439 18.1535 19.6029C19.1105 20.1618 19.9016 20.9652 20.4456 21.9306C20.524 21.7701 20.6359 21.6283 20.7738 21.5147C20.9117 21.4012 21.0724 21.3186 21.245 21.2725L22.4525 20.9488C22.6111 20.9062 22.7766 20.8954 22.9394 20.9168C23.1022 20.9382 23.2592 20.9915 23.4014 21.0737C23.5436 21.1558 23.6682 21.2651 23.7681 21.3955C23.868 21.5258 23.9413 21.6745 23.9837 21.8331L24.4688 23.6438C24.5113 23.8024 24.5221 23.9678 24.5007 24.1306C24.4793 24.2934 24.426 24.4504 24.3438 24.5926C24.2617 24.7348 24.1524 24.8594 24.022 24.9594C23.8917 25.0593 23.743 25.1326 23.5844 25.175L22.3775 25.4988C22.1833 25.5509 21.9794 25.5554 21.7831 25.5119C21.5868 25.4684 21.4039 25.3781 21.25 25.2487V25.625C21.25 25.7908 21.1842 25.9497 21.0669 26.0669C20.9497 26.1842 20.7908 26.25 20.625 26.25C20.4592 26.25 20.3003 26.1842 20.1831 26.0669C20.0658 25.9497 20 25.7908 20 25.625V25C20 24.7619 19.9831 24.5275 19.9513 24.2981ZM15 25C15.1658 25 15.3247 24.9342 15.4419 24.8169C15.5592 24.6997 15.625 24.5408 15.625 24.375C15.625 24.2092 15.5592 24.0503 15.4419 23.9331C15.3247 23.8158 15.1658 23.75 15 23.75C14.8342 23.75 14.6753 23.8158 14.5581 23.9331C14.4408 24.0503 14.375 24.2092 14.375 24.375C14.375 24.5408 14.4408 24.6997 14.5581 24.8169C14.6753 24.9342 14.8342 25 15 25ZM9.375 5.9375C9.375 5.66375 12.1975 3.75 15 3.75C17.8025 3.75 20.625 5.66437 20.625 5.9375C20.625 6.9125 20.5212 7.49 20.4338 7.80438C20.3756 8.01062 20.1825 8.125 19.9681 8.125H10.0319C9.8175 8.125 9.62437 8.01062 9.56625 7.80438C9.47875 7.49 9.375 6.9125 9.375 5.9375ZM14.0625 5.625C13.8967 5.625 13.7378 5.69085 13.6206 5.80806C13.5033 5.92527 13.4375 6.08424 13.4375 6.25C13.4375 6.41576 13.5033 6.57473 13.6206 6.69194C13.7378 6.80915 13.8967 6.875 14.0625 6.875H15.9375C16.1033 6.875 16.2622 6.80915 16.3794 6.69194C16.4967 6.57473 16.5625 6.41576 16.5625 6.25C16.5625 6.08424 16.4967 5.92527 16.3794 5.80806C16.2622 5.69085 16.1033 5.625 15.9375 5.625H14.0625Z" fill="#177962"/>
</svg>